<!-- Generated by IcoMoon.io -->
<svg version="1.1" xmlns="http://www.w3.org/2000/svg" width="512" height="512" viewBox="0 0 512 512">
<title>house-simple</title>
<path fill="#aaa" d="M473.622 187.883l-166.853-166.855c-13.56-13.56-31.591-21.029-50.769-21.029s-37.208 7.468-50.767 21.029l-166.856 166.855c-13.499 13.499-17.346 32.842-10.041 50.48 5.462 13.185 16.003 22.635 28.962 26.567v175.274c0 39.589 32.208 71.797 71.796 71.797h253.832c39.589 0 71.797-32.208 71.797-71.797v-175.279c12.943-3.934 23.48-13.384 28.938-26.564 7.307-17.637 3.459-36.98-10.041-50.479zM454.703 226.367c-0.897 2.168-4.55 9.243-13.834 9.243-9.644 0-17.491 7.847-17.491 17.492v187.101c0 22.305-18.146 40.45-40.45 40.45h-253.833c-22.305 0-40.449-18.146-40.449-40.45v-187.101c0-9.644-7.847-17.492-17.516-17.492-9.283 0-12.935-7.075-13.834-9.243s-3.319-9.753 3.245-16.318l166.855-166.855c7.641-7.639 17.799-11.847 28.603-11.847s20.962 4.208 28.603 11.847l166.854 166.855c6.564 6.565 4.143 14.149 3.245 16.318z"></path>
</svg>
