<?xml version="1.0" standalone="no"?>
<!DOCTYPE svg PUBLIC "-//W3C//DTD SVG 1.1//EN" "http://www.w3.org/Graphics/SVG/1.1/DTD/svg11.dtd" >
<svg xmlns="http://www.w3.org/2000/svg">
<metadata>Generated by IcoMoon</metadata>
<defs>
<font id="icomoon" horiz-adv-x="1024">
<font-face units-per-em="1024" ascent="960" descent="-64" />
<missing-glyph horiz-adv-x="1024" />
<glyph unicode="&#x20;" horiz-adv-x="512" d="" />
<glyph unicode="&#xe900;" glyph-name="window-open-icon" d="M34.462 960c-19.531-2.532-34.463-19.062-34.463-39.079 0-0.107 0-0.215 0.001-0.322v0.016-945.231c-0.001-0.081-0.001-0.176-0.001-0.271 0-21.754 17.635-39.389 39.389-39.389 6.269 0 12.196 1.465 17.458 4.070l-0.23-0.103 150.154 75.077h610.462l150.154-75.077c5.032-2.503 10.959-3.967 17.228-3.967 21.754 0 39.389 17.635 39.389 39.389 0 0.095 0 0.191-0.001 0.286v-0.015 945.231c0.001 0.090 0.001 0.197 0.001 0.305 0 21.754-17.635 39.389-39.389 39.389-1.734 0-3.443-0.112-5.118-0.329l0.198 0.021c-4.58-0.601-8.733-1.9-12.536-3.795l0.228 0.103-150.154-75.077h-610.462l-150.154 75.077c-5.046 2.52-10.993 3.995-17.284 3.995-1.717 0-3.408-0.11-5.067-0.323l0.196 0.021zM78.769 856.615l78.769-39.385v-161.231l-78.769 19.692v180.923zM945.231 856.615v-180.923l-78.769-19.692v161.231l78.769 39.385zM236.308 802.462h551.385v-708.923h-551.385v708.923zM78.769 594.462l78.769-19.692v-496l-78.769-39.385v555.077zM945.231 594.462v-555.077l-78.769 39.385v496l78.769 19.692z" />
<glyph unicode="&#xe901;" glyph-name="motion" horiz-adv-x="819" d="M868.335 614.742c-5.349 17.211-18.107 30.972-35.055 37.78-167.563 66.567-171.751 69.87-204.035 64.527-57.61-9.668-96.456-64.059-86.766-121.624l0.899-5.238-98.538-80.132c-25.836-20.976-29.716-58.813-8.655-84.647 21.22-26.106 59.393-29.438 84.969-8.624l45.159 36.789 17.832-106.243-56.032-59.622c-10.554-11.214-16.367-25.821-16.367-41.137v-192.98c0-33.2 27.066-60.208 60.323-60.208s60.323 27.007 60.323 60.208v157.428l22.094 32.535c17.745-6.822 38.389-8.523 55.162-5.527 0.928 0.152 1.87 0.311 2.812 0.499l75.502-194.716c11.656-29.945 47.073-46.136 78.068-34.38 30.981 12.024 46.435 46.968 34.46 77.911l-102.438 264.185c-0.116 0.861-0.304 1.7-0.565 2.503-0.884 7.922-3.871 34.951-12.598 114.671l10.685-24.186c10.571-31.885 44.507-48.262 75.372-38.554 31.803 9.953 49.507 43.737 39.476 75.524l-42.086 133.257zM862.058 434.235c-15.933-5.014-33.46 4.269-38.432 20.019-0.174 0.514-0.362 1.020-0.58 1.519l-49.769 112.703c-2.957 6.685-10.38 10.23-17.426 8.334-7.075-1.888-11.714-8.653-10.916-15.916 16.744-153.167 21.732-198.24 22.993-209.649 0.015-0.145 0.029-0.289 0.043-0.434h-0.015l0.029-0.203c0.043-0.405 0.087-0.803 0.13-1.194 0-1.83 0.333-3.639 1-5.346l103.685-267.411c6.089-15.728-1.783-33.49-17.44-39.567-15.759-6.012-33.779 2.192-39.723 17.436l-80.301 207.117c-2.885 7.416-11.076 11.221-18.658 8.674-4.335-1.49-8.046-2.445-11.96-3.068-15.237-2.699-33.547-0.051-48.363 8.023-6.727 3.661-15.106 1.621-19.397-4.695l-31.706-46.693c-1.667-2.453-2.552-5.346-2.552-8.313v-161.979c0-16.857-13.743-30.574-30.633-30.574s-30.633 13.717-30.633 30.574v192.98c0 7.633 3.030 15.236 8.322 20.858l61.077 64.975c3.16 3.371 4.581 8.023 3.813 12.581l-23.268 138.64c-0.87 5.209-4.465 9.557-9.409 11.424-1.696 0.637-3.465 0.948-5.234 0.948-3.363 0-6.698-1.143-9.38-3.335l-64.963-52.915c-12.787-10.404-32.865-8.306-43.173 4.355-10.625 13.026-8.852 32.246 4.364 42.967l105.25 85.594c4.146 3.371 6.147 8.703 5.262 13.963l-2.334 13.724c-6.967 41.423 20.993 80.521 62.367 87.468 23.247 3.806 18.402 4.609 188.117-62.812 8.582-3.444 15.034-10.389 17.745-19.114l42.1-133.322c5.096-16.11-3.865-33.276-20.035-38.337zM703.762 833.941c0 59.397-48.406 107.718-107.918 107.718s-107.933-48.321-107.933-107.718 48.421-107.718 107.933-107.718 107.918 48.321 107.918 107.718zM517.602 833.941c0 43.054 35.098 78.085 78.242 78.085 43.129 0 78.227-35.031 78.227-78.085s-35.098-78.085-78.227-78.085c-43.144 0-78.242 35.031-78.242 78.085zM56.993 418.767c210.776 0 382.265 171.16 382.265 381.54h-29.69c0-194.044-158.166-351.906-352.575-351.906v-29.634zM56.993 506.344c162.399 0 294.527 131.868 294.527 293.963h-29.69c0-145.752-118.805-264.329-264.837-264.329v-29.634zM56.993 593.921c114.021 0 206.775 92.583 206.775 206.386h-29.69c0-97.46-79.445-176.753-177.085-176.753v-29.634zM149.182 744.36c0 24.54-19.948 44.508-44.478 44.508-24.587 0-44.594-19.968-44.594-44.508 0-24.475 20.006-44.392 44.594-44.392 24.529 0 44.478 19.917 44.478 44.392zM89.801 744.36c0 8.204 6.683 14.875 14.903 14.875 8.148 0 14.787-6.671 14.787-14.875 0-8.139-6.64-14.759-14.787-14.759-8.22 0-14.903 6.62-14.903 14.759z" />
<glyph unicode="&#xe902;" glyph-name="processor" d="M1000.729 564.364c12.864 0 23.273 10.409 23.273 23.273s-10.409 23.271-23.273 23.271h-69.818v93.092h69.818c12.864 0 23.273 10.409 23.273 23.273s-10.409 23.271-23.273 23.271h-69.818v23.273c0 51.34-41.749 93.092-93.092 93.092h-23.273v69.818c0 12.862-10.407 23.271-23.271 23.271s-23.273-10.409-23.273-23.273v-69.818h-93.092v69.818c0 12.864-10.409 23.273-23.271 23.273s-23.273-10.409-23.273-23.273v-69.818h-93.092v69.818c0 12.864-10.409 23.273-23.271 23.273s-23.273-10.409-23.273-23.273v-69.818h-93.092v69.818c0 12.864-10.409 23.273-23.271 23.273s-23.273-10.409-23.273-23.273v-69.818h-93.092v69.818c0 12.864-10.409 23.273-23.271 23.273s-23.273-10.409-23.273-23.273v-69.818h-23.273c-51.34 0-93.092-41.749-93.092-93.092v-23.271h-69.818c-12.862 0-23.271-10.409-23.271-23.273s10.409-23.273 23.273-23.273h69.818v-93.090h-69.818c-12.864 0-23.273-10.409-23.273-23.273s10.409-23.273 23.273-23.273h69.818v-93.090h-69.818c-12.864 0-23.273-10.409-23.273-23.273s10.409-23.273 23.273-23.273h69.818v-93.090h-69.818c-12.864 0-23.273-10.409-23.273-23.273s10.409-23.273 23.273-23.273h69.818v-93.090h-69.818c-12.864 0-23.273-10.409-23.273-23.273s10.409-23.273 23.273-23.273h69.818v-23.271c0-51.34 41.749-93.092 93.092-93.092h23.271v-69.818c0-12.864 10.409-23.273 23.273-23.273s23.273 10.409 23.273 23.273v69.818h93.090v-69.818c0-12.864 10.409-23.273 23.273-23.273s23.273 10.409 23.273 23.273v69.818h93.090v-69.818c0-12.864 10.409-23.273 23.273-23.273s23.273 10.409 23.273 23.273v69.818h93.090v-69.818c0-12.864 10.409-23.273 23.273-23.273s23.273 10.409 23.273 23.273v69.818h93.090v-69.818c0-12.864 10.409-23.273 23.273-23.273s23.273 10.409 23.273 23.273v69.818h23.271c51.34 0 93.092 41.749 93.092 93.092v23.273h69.818c12.864 0 23.273 10.409 23.273 23.273s-10.409 23.273-23.273 23.273h-69.818v93.092h69.818c12.864 0 23.273 10.409 23.273 23.273s-10.409 23.269-23.273 23.269h-69.818v93.092h69.818c12.864 0 23.273 10.409 23.273 23.273s-10.409 23.271-23.273 23.271h-69.818v93.092h69.818zM884.364 122.181c0-25.658-20.887-46.545-46.545-46.545h-651.638c-25.658 0-46.545 20.887-46.545 46.545v651.638c0 25.658 20.887 46.545 46.545 46.545h651.638c25.658 0 46.545-20.887 46.545-46.545v-651.638zM814.545 773.819h-605.091c-12.864 0-23.273-10.409-23.273-23.273v-605.091c0-12.864 10.409-23.273 23.273-23.273h605.091c12.864 0 23.273 10.409 23.273 23.273v605.091c0 12.864-10.409 23.273-23.273 23.273zM791.274 168.726h-558.546v558.546h558.546v-558.546z" />
<glyph unicode="&#xe903;" glyph-name="surveillance_issue" d="M43.847-50.559h142.092c7.749 0 14.036 6.287 14.036 14.036v127.425l306.817 120.115c5.382 2.111 8.918 7.292 8.918 13.067v210.551h64.896c7.758 0 14.036 6.287 14.036 14.036v83.318h25.439c7.749 0 14.036 6.287 14.036 14.036v43.852h185.934c5.738 0 10.892 3.491 13.030 8.818l20.679 51.701h113.628c7.758 0 14.036 6.287 14.036 14.036v149.977c0 7.749-6.278 14.036-14.036 14.036h-42.408l44.912 112.303c1.736 4.331 1.206 9.229-1.407 13.085s-6.963 6.168-11.623 6.168h-676.209c-45.506-0.055-82.395-36.935-82.441-82.45v-205.233c0.046-45.506 36.935-82.395 82.441-82.441h88.59v-43.852c0-7.749 6.287-14.036 14.036-14.036h25.43v-83.318c0-7.749 6.287-14.036 14.036-14.036h64.905v-200.975l-287.683-112.622v117.237c0 7.749-6.278 14.036-14.036 14.036h-142.082c-7.749 0-14.036-6.287-14.036-14.036v-274.799c0-7.749 6.287-14.036 14.036-14.036zM953.352 800.373v-121.906h-88.362l48.759 121.906zM280.651 617.948c-30.008 0.037-54.333 24.361-54.369 54.369v205.233c0.037 30.017 24.361 54.342 54.369 54.379h655.485l-125.589-313.981zM397.312 560.060v29.816h208.733v-29.816zM436.778 462.707v69.282h129.801v-69.282zM57.883 224.24h114.020v-246.728h-114.020zM296.441 878.437c-7.749 0-14.036-6.287-14.036-14.036v-15.379c0-7.749 6.287-14.036 14.036-14.036s14.036 6.287 14.036 14.036v15.379c0 7.749-6.287 14.036-14.036 14.036zM372.723 878.437c-7.749 0-14.036-6.287-14.036-14.036v-15.379c0-7.749 6.287-14.036 14.036-14.036 7.758 0 14.036 6.287 14.036 14.036v15.379c0 7.749-6.278 14.036-14.036 14.036zM449.014 878.437c-7.758 0-14.036-6.287-14.036-14.036v-15.379c0-7.749 6.278-14.036 14.036-14.036 7.749 0 14.036 6.287 14.036 14.036v15.379c0 7.749-6.287 14.036-14.036 14.036zM525.295 878.437c-7.749 0-14.036-6.287-14.036-14.036v-15.379c0-7.749 6.287-14.036 14.036-14.036s14.036 6.287 14.036 14.036v15.379c0 7.749-6.287 14.036-14.036 14.036zM601.586 878.437c-7.758 0-14.036-6.287-14.036-14.036v-15.379c0-7.749 6.278-14.036 14.036-14.036 7.749 0 14.036 6.287 14.036 14.036v15.379c0 7.749-6.287 14.036-14.036 14.036zM677.868 878.437c-7.749 0-14.036-6.287-14.036-14.036v-15.379c0-7.749 6.287-14.036 14.036-14.036s14.036 6.287 14.036 14.036v15.379c0 7.749-6.287 14.036-14.036 14.036zM754.15 878.437c-7.749 0-14.036-6.287-14.036-14.036v-15.379c0-7.749 6.287-14.036 14.036-14.036s14.036 6.287 14.036 14.036v15.379c0 7.749-6.287 14.036-14.036 14.036zM830.44 834.987c7.749 0 14.036 6.287 14.036 14.036v15.379c0 7.749-6.287 14.036-14.036 14.036-7.758 0-14.036-6.287-14.036-14.036v-15.379c0-7.749 6.278-14.036 14.036-14.036zM807.971 352.031c-12.857 20.642-35.445 33.188-59.761 33.188s-46.904-12.546-59.761-33.188c-0.082-0.137-0.164-0.283-0.247-0.42l-177.363-308.243c-13.405-21.711-14.008-48.978-1.581-71.265s35.948-36.094 61.469-36.103h354.964c25.513 0.009 49.033 13.816 61.46 36.103s11.824 49.554-1.581 71.265l-177.354 308.243c-0.082 0.137-0.164 0.283-0.247 0.42zM961.612 28.738c8.133-13.049 8.544-29.478 1.078-42.911-7.466-13.442-21.629-21.775-36.999-21.775h-354.964c-15.37 0-29.533 8.334-36.989 21.775-7.466 13.432-7.054 29.862 1.069 42.911 0.082 0.146 0.164 0.283 0.247 0.42l177.354 308.224c7.749 12.299 21.273 19.765 35.811 19.765s28.053-7.466 35.802-19.765l177.354-308.215c0.073-0.137 0.164-0.274 0.238-0.429zM748.201 257.794c-7.749 0-14.036-6.287-14.036-14.036v-152.225c0-7.749 6.287-14.036 14.036-14.036s14.036 6.287 14.036 14.036v152.225c0 7.749-6.287 14.036-14.036 14.036zM748.201 55.229c-7.749 0-14.036-6.287-14.036-14.036v-14.465c0-7.758 6.287-14.036 14.036-14.036s14.036 6.278 14.036 14.036v14.465c0 7.749-6.287 14.036-14.036 14.036z" />
<glyph unicode="&#xe904;" glyph-name="surveillance_ok" d="M167.713 254.641h-141.615c-7.732 0-13.989-6.266-13.989-13.989v-273.894c0-7.723 6.257-13.989 13.989-13.989h141.615c7.723 0 13.989 6.266 13.989 13.989v127.006l305.807 119.72c5.364 2.104 8.889 7.268 8.889 13.024v209.858h64.692c7.723 0 13.989 6.266 13.989 13.989v83.043h25.347c7.723 0 13.989 6.266 13.989 13.989v43.708h185.322c5.72 0 10.865 3.479 12.987 8.789l20.611 51.531h113.253c7.732 0 13.989 6.266 13.989 13.989v149.484c0 7.723-6.257 13.989-13.989 13.989h-42.269l44.764 111.933c1.73 4.317 1.202 9.199-1.403 13.042-2.596 3.843-6.94 6.148-11.585 6.148h-673.983c-45.356-0.055-82.114-36.813-82.169-82.178v-204.557c0.055-45.356 36.813-82.124 82.169-82.169h88.299v-43.708c0-7.723 6.266-13.989 13.989-13.989h25.347v-83.043c0-7.723 6.266-13.989 13.989-13.989h64.692v-200.313l-286.727-112.252v116.851c0 7.723-6.266 13.989-13.989 13.989zM153.724-19.253h-113.636v245.915h113.636zM932.6 800.899v-121.505h-88.071l48.598 121.505zM262.114 619.074c-29.909 0.036-54.154 24.281-54.19 54.19v204.557c0.036 29.919 24.281 54.163 54.19 54.2h653.327l-125.175-312.947zM378.391 561.377v29.718h208.055v-29.718zM417.727 464.344v69.054h129.374v-69.054zM277.852 878.705c-7.723 0-13.989-6.266-13.989-13.989v-15.328c0-7.723 6.266-13.989 13.989-13.989 7.732 0 13.989 6.266 13.989 13.989v15.328c0 7.723-6.257 13.989-13.989 13.989zM353.882 878.705c-7.723 0-13.989-6.266-13.989-13.989v-15.328c0-7.723 6.266-13.989 13.989-13.989 7.732 0 13.989 6.266 13.989 13.989v15.328c0 7.723-6.257 13.989-13.989 13.989zM429.922 878.705c-7.732 0-13.989-6.266-13.989-13.989v-15.328c0-7.723 6.257-13.989 13.989-13.989 7.723 0 13.989 6.266 13.989 13.989v15.328c0 7.723-6.266 13.989-13.989 13.989zM505.953 878.705c-7.723 0-13.989-6.266-13.989-13.989v-15.328c0-7.723 6.266-13.989 13.989-13.989 7.732 0 13.989 6.266 13.989 13.989v15.328c0 7.723-6.257 13.989-13.989 13.989zM581.992 878.705c-7.732 0-13.989-6.266-13.989-13.989v-15.328c0-7.723 6.257-13.989 13.989-13.989 7.723 0 13.989 6.266 13.989 13.989v15.328c0 7.723-6.266 13.989-13.989 13.989zM658.023 878.705c-7.723 0-13.989-6.266-13.989-13.989v-15.328c0-7.723 6.266-13.989 13.989-13.989s13.989 6.266 13.989 13.989v15.328c0 7.723-6.266 13.989-13.989 13.989zM734.053 878.705c-7.723 0-13.989-6.266-13.989-13.989v-15.328c0-7.723 6.266-13.989 13.989-13.989s13.989 6.266 13.989 13.989v15.328c0 7.723-6.266 13.989-13.989 13.989zM810.093 835.398c7.723 0 13.989 6.266 13.989 13.989v15.328c0 7.723-6.266 13.989-13.989 13.989-7.732 0-13.989-6.266-13.989-13.989v-15.328c0-7.723 6.257-13.989 13.989-13.989zM675.819-9.007c32.387-23.643 68.307-42.014 106.432-54.427 2.523-0.738 5.2-0.756 7.732-0.036 39.236 12.323 76.331 30.647 109.966 54.327 73.016 51.622 111.614 120.203 111.614 198.319v107.834c0.009 13.534-7.951 25.811-20.301 31.339-68.389 30.201-133.154 67.998-193.091 112.68-4.973 3.734-11.813 3.734-16.785 0-59.937-44.682-124.702-82.479-193.091-112.68-12.359-5.528-20.31-17.805-20.301-31.339v-107.825c0-78.034 37.287-146.569 107.825-198.191zM595.972 297.010c-0.009 2.486 1.439 4.745 3.698 5.765 67.096 29.673 130.831 66.422 190.113 109.647 59.272-43.216 123.008-79.974 190.104-109.638 2.259-1.029 3.707-3.288 3.698-5.774v-107.825c0-52.087-18.798-98.253-55.994-137.808-0.738 7.414-7.159 12.96-14.6 12.596-7.45-0.355-13.297-6.494-13.315-13.944v-12.705c0-3.288 1.157-6.466 3.27-8.98-5.865-4.836-12.031-9.572-18.507-14.181-30.174-21.139-63.243-37.815-98.189-49.5-33.771 11.731-65.639 28.37-94.565 49.391-5.72 4.208-11.184 8.516-16.394 12.924 2.924 2.65 4.59 6.403 4.59 10.337v12.705c0 7.723-6.266 13.989-13.989 13.989-7.732 0-13.989-6.266-13.989-13.989v-0.765c-37.141 40.010-55.93 86.887-55.93 139.93zM789.783 64.009c-7.732 0-13.989-6.266-13.989-13.989v-12.705c0-7.723 6.257-13.989 13.989-13.989 7.723 0 13.989 6.266 13.989 13.989v12.705c0 7.723-6.266 13.989-13.989 13.989zM831.077 64.009c-7.732 0-13.989-6.266-13.989-13.989v-12.705c0-7.723 6.257-13.989 13.989-13.989 7.723 0 13.989 6.266 13.989 13.989v12.705c0 7.723-6.266 13.989-13.989 13.989zM858.381 50.020v-12.705c0-7.723 6.266-13.989 13.989-13.989s13.989 6.266 13.989 13.989v12.705c0 7.723-6.266 13.989-13.989 13.989s-13.989-6.266-13.989-13.989zM748.48 64.009c-7.723 0-13.989-6.266-13.989-13.989v-12.705c0-7.723 6.266-13.989 13.989-13.989 7.732 0 13.989 6.266 13.989 13.989v12.705c0 7.723-6.257 13.989-13.989 13.989zM707.186 23.325c7.723 0 13.989 6.266 13.989 13.989v12.705c0 7.723-6.266 13.989-13.989 13.989s-13.989-6.266-13.989-13.989v-12.705c0-7.723 6.266-13.989 13.989-13.989zM762.050 138.665c5.465-5.465 14.326-5.465 19.791 0l82.706 82.697c5.392 5.474 5.355 14.272-0.082 19.709-5.428 5.428-14.226 5.465-19.7 0.073l-72.806-72.797-37.15 37.15c-5.465 5.465-14.326 5.465-19.791 0s-5.465-14.317 0-19.782z" />
<glyph unicode="&#xe905;" glyph-name="power-button" d="M512.005 408.613c21.336 0 39.806 7.779 55.385 23.382 15.584 15.581 23.395 34.053 23.395 55.381v393.85c0 21.338-7.803 39.797-23.395 55.379-15.577 15.599-34.049 23.395-55.385 23.395-21.338 0-39.797-7.805-55.387-23.395-15.59-15.581-23.386-34.049-23.386-55.379v-393.853c0-21.328 7.796-39.797 23.386-55.381 15.59-15.601 34.055-23.38 55.387-23.38zM935.092 619.69c-33.032 66.046-79.487 121.433-139.381 166.147-17.23 13.126-36.717 18.256-58.461 15.387-21.746-2.873-38.976-13.129-51.693-30.764-13.129-17.228-18.144-36.612-15.075-58.151 3.067-21.55 13.232-38.877 30.462-52.006 40.188-30.357 71.284-67.49 93.221-111.387 21.951-43.893 32.913-90.667 32.913-140.297 0-42.679-8.307-83.388-24.919-122.164-16.61-38.769-39.077-72.301-67.389-100.612-28.311-28.303-61.834-50.762-100.61-67.38-38.769-16.618-79.487-24.938-122.153-24.938-42.66 0-83.38 8.32-122.149 24.938-38.774 16.618-72.307 39.077-100.619 67.38-28.298 28.311-50.762 61.841-67.38 100.612-16.614 38.776-24.923 79.485-24.923 122.164 0 49.63 10.975 96.398 32.922 140.297 21.948 43.893 53.025 81.024 93.228 111.387 17.23 13.137 27.38 30.462 30.462 52.006 3.076 21.53-1.946 40.922-15.077 58.151-12.719 17.636-29.839 27.893-51.383 30.764-21.541 2.871-41.136-2.261-58.774-15.387-59.903-44.714-106.356-100.101-139.388-166.147-33.029-66.055-49.538-136.411-49.538-211.072 0-64.009 12.514-125.13 37.536-183.386 25.031-58.256 58.666-108.503 100.929-150.766 42.25-42.252 92.508-75.903 150.768-100.905 58.256-25.035 119.384-37.56 183.382-37.56 64 0 125.125 12.525 183.384 37.56 58.263 25.011 108.518 58.655 150.775 100.905 42.25 42.25 75.885 92.51 100.912 150.766s37.53 119.392 37.53 183.386c0.002 74.663-16.485 145.020-49.514 211.072z" />
<glyph unicode="&#xe906;" glyph-name="air-conditioner-3" d="M1014.817 646.069c-65.296 65.296-141.339 116.562-226.019 152.379-87.686 37.088-180.815 55.894-276.797 55.894-95.984 0-189.114-18.806-276.801-55.894-84.68-35.819-160.724-87.088-226.019-152.383-10.135-10.138-12.104-25.857-4.781-38.18l242.416-407.917c5.651-9.506 15.891-15.333 26.948-15.333h30.064c3.895-14.61 9.12-28.682 14.181-42.297 4.836-13.007 9.404-25.293 12.528-37.175 3.059-11.632 4.545-22.152 4.545-32.158 0-17.312 14.035-31.347 31.347-31.347s31.347 14.035 31.347 31.347c0 15.458-2.161 31.194-6.608 48.099-3.912 14.883-9.243 29.219-14.399 43.083-2.606 7.009-5.126 13.805-7.394 20.449h96.39c3.891-14.601 9.118-28.68 14.181-42.299 4.836-13.007 9.404-25.293 12.528-37.173 3.059-11.636 4.545-22.158 4.545-32.16 0-17.312 14.035-31.347 31.347-31.347s31.347 14.035 31.347 31.347c0 15.456-2.161 31.188-6.608 48.099-3.912 14.883-9.243 29.219-14.399 43.083-2.608 7.011-5.128 13.807-7.394 20.451h96.39c3.891-14.603 9.118-28.682 14.181-42.299 4.834-13.003 9.402-25.284 12.528-37.173 3.059-11.636 4.545-22.158 4.545-32.16 0-17.312 14.035-31.347 31.347-31.347s31.347 14.035 31.347 31.347c0 15.456-2.161 31.188-6.608 48.101-3.916 14.892-9.245 29.222-14.399 43.081-2.608 7.011-5.128 13.807-7.394 20.451h56.984c11.059 0 21.297 5.826 26.948 15.333l242.416 407.919c7.325 12.326 5.354 28.045-4.781 38.183zM684.499 247.331c0.744 5.845 1.937 11.92 3.628 18.344 3.122 11.878 7.69 24.164 12.528 37.173 5.153 13.859 10.482 28.189 14.399 43.083 4.445 16.911 6.608 32.643 6.608 48.099 0 15.454-2.161 31.186-6.608 48.101-2.002 7.613-4.376 15.080-6.905 22.415h25.955c11.899 0 17.859 14.386 9.444 22.802l-57.492 57.492c-5.216 5.216-13.674 5.216-18.89 0l-57.492-57.492c-8.414-8.414-2.456-22.802 9.444-22.802h22.4c0.13-0.393 0.228-0.792 0.374-1.183 4.836-13.007 9.404-25.291 12.528-37.171 3.059-11.638 4.547-22.16 4.547-32.16 0-10.002-1.486-20.522-4.545-32.158-3.128-11.891-7.695-24.173-12.528-37.175-5.156-13.866-10.489-28.206-14.399-43.083-3.131-11.91-5.105-23.228-6.012-34.283h-98.92c0.744 5.845 1.937 11.92 3.628 18.346 3.122 11.878 7.69 24.164 12.528 37.173 5.156 13.864 10.487 28.2 14.399 43.083 4.445 16.911 6.608 32.643 6.608 48.099 0 15.454-2.161 31.186-6.608 48.099-2 7.611-4.374 15.078-6.905 22.417h23.287c11.899 0 17.859 14.386 9.444 22.802l-57.492 57.492c-5.216 5.216-13.674 5.216-18.89 0l-57.492-57.492c-8.414-8.414-2.456-22.802 9.444-22.802h25.069c0.13-0.393 0.228-0.792 0.374-1.183 4.838-13.011 9.406-25.297 12.528-37.171 3.059-11.638 4.547-22.16 4.547-32.16 0-10.002-1.486-20.522-4.545-32.16-3.124-11.883-7.693-24.164-12.528-37.173-5.156-13.866-10.489-28.206-14.399-43.083-3.131-11.91-5.105-23.23-6.012-34.285h-98.92c0.744 5.845 1.937 11.92 3.626 18.344 3.126 11.887 7.693 24.171 12.528 37.175 5.156 13.864 10.487 28.2 14.399 43.081 4.445 16.906 6.608 32.64 6.608 48.101 0 15.456-2.161 31.192-6.608 48.099-2 7.611-4.374 15.078-6.905 22.417h20.618c11.899 0 17.859 14.386 9.444 22.802l-57.492 57.492c-5.216 5.216-13.674 5.216-18.89 0l-57.492-57.492c-8.414-8.414-2.456-22.802 9.444-22.802h27.736c0.13-0.393 0.228-0.792 0.374-1.183 4.838-13.011 9.406-25.297 12.528-37.173 3.059-11.634 4.545-22.154 4.545-32.158 0-10.006-1.486-20.524-4.545-32.16-3.124-11.883-7.693-24.164-12.528-37.173-5.153-13.862-10.484-28.193-14.399-43.083-3.131-11.91-5.105-23.23-6.012-34.285h-5.998l-220.63 371.237c120.272 111.798 275.938 173.074 441.025 173.074 165.083 0 320.745-61.275 441.019-173.070l-220.621-371.247h-47.902z" />
<glyph unicode="&#xe907;" glyph-name="continuous" d="M858.16 206.822c-14.438 10.974-35.034 8.161-46.003-6.277-2.105-2.771-4.263-5.507-6.472-8.21-32.93-40.295-77.292-73.013-132.021-97.337-0.271-0.12-0.541-0.243-0.808-0.372-86.355-41.214-187.387-46.848-284.295-15.92-85.083 27.702-154.31 81.334-205.769 159.414-38.218 61.275-58.246 127.878-59.671 198.124-0.035 1.709-0.033 3.423-0.046 5.135h40.275c15.143 0 22.727 18.308 12.018 29.015l-73.16 73.16c-6.638 6.638-17.4 6.638-24.038 0l-73.16-73.16c-10.707-10.707-3.123-29.015 12.018-29.015h40.334c0.525-84.748 24.038-164.916 69.955-238.386 0.136-0.217 0.274-0.429 0.411-0.643 59.872-91.006 140.788-153.612 240.687-186.135 47.866-15.275 96.633-22.865 144.673-22.865 65.294 0.002 129.228 14.023 187.647 41.831 68.432 30.486 123.509 72.757 163.695 125.639 10.972 14.436 8.161 35.031-6.273 46.003zM1006.97 448.13h-40.332c-0.002 9-0.269 18.102-0.797 27.056-4.187 70.936-25.318 140.786-61.109 202-34.898 59.686-83.807 111.472-141.443 149.76-58.599 38.929-126.446 63.965-196.209 72.398-77.535 9.374-156.383-1.265-228.023-30.755-70.255-28.918-132.747-75.556-180.72-134.87-11.403-14.095-9.216-34.769 4.878-46.171 14.099-11.401 34.769-9.216 46.171 4.881 2.451 3.031 4.955 6.019 7.494 8.973 39.995 46.515 90.649 83.203 147.168 106.468 61.271 25.22 128.758 34.313 195.152 26.288 59.64-7.209 117.648-28.614 167.755-61.903 49.345-32.784 91.22-77.114 121.095-128.21 30.597-52.33 48.664-112.058 52.245-172.727 0.228-3.859 0.398-7.748 0.514-11.644 0.114-3.852 0.169-7.708 0.171-11.545h-40.328c-15.143 0-22.727-18.308-12.018-29.015l73.16-73.16c6.638-6.638 17.4-6.638 24.038 0l73.16 73.16c10.702 10.709 3.119 29.017-12.022 29.017z" />
<glyph unicode="&#xe908;" glyph-name="high" d="M986.505 640.637c-25.771 63.548-63.61 120.543-112.468 169.401s-105.852 86.697-169.401 112.468c-61.351 24.879-126.163 37.495-192.636 37.495s-131.285-12.616-192.638-37.495c-63.548-25.771-120.543-63.61-169.401-112.468-48.858-48.855-86.697-105.852-112.468-169.401-24.879-61.353-37.495-126.165-37.495-192.638s12.616-131.285 37.495-192.638c25.771-63.548 63.61-120.543 112.468-169.401s105.852-86.697 169.401-112.468c61.353-24.879 126.165-37.495 192.638-37.495s131.285 12.616 192.638 37.495c63.548 25.771 120.543 63.61 169.401 112.468s86.697 105.852 112.468 169.401c24.879 61.353 37.495 126.165 37.495 192.638s-12.616 131.285-37.498 192.638zM512.001 904.079c69.853 0 139.698-15.963 203.621-47.86h-407.242c63.923 31.897 133.768 47.86 203.621 47.86zM189.504 770.496c10.569 10.569 21.538 20.489 32.839 29.803h579.313c11.302-9.314 22.27-19.234 32.839-29.803 49.068-49.068 84.588-106.543 106.621-167.784h-163.764c-53.608 90.698-152.367 151.539-265.355 151.539s-211.746-60.842-265.355-151.539h-163.761c22.033 61.242 57.551 118.717 106.621 167.784zM632.927 548.385v-200.769h-41.943v200.769h41.943zM433.016 437.653v-90.038h-41.943v200.769h41.943v-76.058h78.295v76.058h41.941v-200.769h-41.941v90.038h-78.295zM66.702 546.791h154.073c-10.885-31.522-16.813-65.357-16.813-100.582 0-33.894 5.489-66.501 15.602-97.003h-152.862c-14.36 65.019-14.36 132.566 0 197.585zM512.001-8.079c-69.853 0-139.698 15.963-203.621 47.86h407.24c-63.92-31.897-133.768-47.86-203.618-47.86zM834.499 125.501c-11.643-11.645-36.298-32.627-36.298-32.627h-572.399c0 0-24.655 20.984-36.298 32.627-49.070 49.068-84.588 106.543-106.621 167.784h161.661c53.105-92.677 152.985-155.118 267.457-155.118s214.352 62.441 267.457 155.118h161.661c-22.033-61.239-57.554-118.714-106.621-167.784zM957.301 349.206h-152.862c10.113 30.502 15.602 63.109 15.602 97.003 0 35.224-5.928 69.059-16.813 100.582h154.073c14.36-65.019 14.36-132.566 0-197.585z" />
<glyph unicode="&#xe909;" glyph-name="house" d="M947.244 584.234l-333.707 333.709c-27.121 27.121-63.181 42.057-101.537 42.057s-74.416-14.936-101.535-42.057l-333.711-333.709c-26.998-26.998-34.693-65.684-20.081-100.96 10.923-26.371 32.005-45.271 57.925-53.135v-350.547c0-79.178 64.416-143.594 143.592-143.594h507.664c79.178 0 143.594 64.416 143.594 143.594v350.557c25.886 7.868 46.96 26.768 57.877 53.127 14.614 35.274 6.919 73.96-20.081 100.958zM909.406 507.267c-1.795-4.336-9.099-18.486-27.667-18.486-19.289 0-34.983-15.694-34.983-34.983v-374.203c0-44.609-36.291-80.9-80.9-80.9h-507.666c-44.609 0-80.898 36.291-80.898 80.9v374.203c0 19.289-15.694 34.983-35.031 34.983-18.566 0-25.87 14.15-27.667 18.486s-6.637 19.506 6.491 32.636l333.709 333.709c15.281 15.278 35.598 23.694 57.206 23.694s41.925-8.416 57.206-23.694l333.709-333.709c13.128-13.13 8.286-28.298 6.491-32.636zM766.796 378.715h-77.283c-17.312 0-31.347-14.035-31.347-31.347s14.035-31.347 31.347-31.347h77.283c17.312 0 31.347 14.035 31.347 31.347s-14.035 31.347-31.347 31.347zM637.532 441.547c8.023 0 16.045 3.059 22.164 9.183l54.646 54.646c12.242 12.242 12.242 32.089 0 44.331-12.24 12.242-32.089 12.242-44.331 0l-54.646-54.646c-12.242-12.242-12.242-32.089 0-44.331 6.121-6.123 14.144-9.183 22.166-9.183zM512.015 493.549c17.312 0 31.347 14.035 31.347 31.347v77.283c0 17.312-14.035 31.347-31.347 31.347s-31.347-14.035-31.347-31.347v-77.283c0-17.312 14.035-31.347 31.347-31.347zM364.322 450.748c6.121-6.121 14.144-9.183 22.164-9.183s16.045 3.059 22.164 9.183c12.242 12.242 12.242 32.089 0 44.331l-54.646 54.646c-12.24 12.242-32.089 12.242-44.331 0s-12.242-32.089 0-44.331l54.648-54.646zM365.833 347.397c0 17.312-14.035 31.347-31.347 31.347h-77.283c-17.312 0-31.347-14.035-31.347-31.347s14.035-31.347 31.347-31.347h77.283c17.312 0 31.347 14.035 31.347 31.347zM364.302 244.038l-54.646-54.648c-12.24-12.242-12.24-32.089 0-44.331 6.121-6.121 14.144-9.18 22.164-9.18s16.045 3.059 22.166 9.183l54.646 54.648c12.24 12.242 12.24 32.089 0 44.331-12.24 12.24-32.089 12.24-44.331-0.002zM511.985 201.216c-17.312 0-31.347-14.035-31.347-31.347v-77.283c0-17.312 14.035-31.347 31.347-31.347s31.347 14.035 31.347 31.347v77.283c0 17.312-14.035 31.347-31.347 31.347zM659.675 244.017c-12.24 12.242-32.089 12.242-44.331 0s-12.242-32.089 0-44.331l54.646-54.646c6.121-6.121 14.144-9.183 22.164-9.183s16.045 3.059 22.164 9.183c12.242 12.242 12.242 32.089 0 44.331l-54.644 54.646zM512 471.98c-68.702 0-124.598-55.894-124.598-124.598s55.896-124.598 124.598-124.598 124.598 55.894 124.598 124.598-55.896 124.598-124.598 124.598zM512 285.479c-34.133 0-61.904 27.769-61.904 61.904s27.771 61.904 61.904 61.904 61.904-27.769 61.904-61.904-27.771-61.904-61.904-61.904z" />
<glyph unicode="&#xe90a;" glyph-name="house-1" d="M947.244 584.234l-333.707 333.709c-27.121 27.121-63.181 42.057-101.537 42.057s-74.416-14.936-101.535-42.057l-333.711-333.709c-26.998-26.998-34.693-65.684-20.081-100.96 10.923-26.371 32.005-45.271 57.925-53.135v-350.547c0-79.178 64.416-143.594 143.592-143.594h507.664c79.178 0 143.594 64.416 143.594 143.594v350.557c25.886 7.868 46.96 26.768 57.877 53.127 14.614 35.274 6.919 73.96-20.081 100.958zM909.406 507.267c-1.795-4.336-9.099-18.486-27.667-18.486-19.289 0-34.983-15.694-34.983-34.983v-374.203c0-44.609-36.291-80.9-80.9-80.9h-507.666c-44.609 0-80.898 36.291-80.898 80.9v374.203c0 19.289-15.694 34.983-35.031 34.983-18.566 0-25.87 14.15-27.667 18.486s-6.637 19.506 6.491 32.636l333.709 333.709c15.281 15.278 35.598 23.694 57.206 23.694s41.925-8.416 57.206-23.694l333.709-333.709c13.128-13.13 8.286-28.298 6.491-32.636zM728.329 292.521c-15.107 8.447-34.21 3.043-42.657-12.069-35.157-62.897-101.704-101.967-173.672-101.967-109.62 0-198.802 89.182-198.802 198.802v0h8.075c11.517 0 17.285 13.924 9.141 22.068l-39.422 39.422c-5.049 5.049-13.233 5.049-18.282 0l-39.422-39.422c-8.144-8.144-2.376-22.068 9.141-22.068h8.075c0-144.19 117.307-261.496 261.496-261.496 94.655 0 182.174 51.373 228.398 134.075 8.447 15.109 3.045 34.208-12.069 42.655zM781.573 400.275h-8.075c0 144.192-117.307 261.498-261.496 261.498-95.97 0-184.069-52.431-229.917-136.831-8.265-15.212-2.631-34.243 12.583-42.509s34.245-2.633 42.509 12.583c34.87 64.188 101.859 104.063 174.828 104.063 109.62 0 198.802-89.184 198.802-198.804h-8.075c-11.517 0-17.285-13.924-9.141-22.066l39.422-39.422c5.049-5.049 13.233-5.049 18.282 0l39.422 39.422c8.14 8.142 2.372 22.066-9.143 22.066z" />
<glyph unicode="&#xe90b;" glyph-name="house-2" d="M947.244 584.234l-333.709 333.709c-27.121 27.121-63.181 42.057-101.535 42.057-38.356 0-74.416-14.936-101.535-42.057l-333.711-333.709c-26.998-26.998-34.693-65.684-20.081-100.96 10.923-26.371 32.005-45.271 57.925-53.135v-350.547c0-79.178 64.416-143.594 143.592-143.594h507.664c79.178 0 143.594 64.416 143.594 143.594v350.557c25.886 7.868 46.96 26.768 57.877 53.127 14.614 35.274 6.917 73.96-20.081 100.958zM909.406 507.267c-1.797-4.336-9.101-18.486-27.667-18.486-19.289 0-34.983-15.694-34.983-34.983v-374.203c0-44.609-36.291-80.9-80.9-80.9h-507.666c-44.609 0-80.898 36.291-80.898 80.9v374.203c0 19.289-15.694 34.983-35.031 34.983-18.566 0-25.87 14.15-27.667 18.486s-6.637 19.506 6.491 32.636l333.709 333.709c15.281 15.278 35.598 23.694 57.206 23.694s41.925-8.416 57.204-23.694l333.711-333.709c13.128-13.13 8.286-28.3 6.491-32.636zM361.299 399.701l43.787 43.785c6.409 6.409 1.87 17.366-7.193 17.366h-12.441v42.513h253.093v-12.616c0-17.312 14.035-31.347 31.347-31.347s31.347 14.035 31.347 31.347v43.963c0 17.312-14.035 31.347-31.347 31.347h-315.787c-17.312 0-31.347-14.035-31.347-31.347v-73.86h-12.438c-9.063 0-13.602-10.957-7.193-17.366l43.787-43.785c3.971-3.973 10.413-3.973 14.384 0zM677.088 381.703c-3.973 3.973-10.413 3.973-14.386 0l-43.787-43.787c-6.409-6.407-1.87-17.366 7.193-17.366h12.441v-42.513h-253.095v12.616c0 17.312-14.035 31.347-31.347 31.347s-31.347-14.035-31.347-31.347v-43.963c0-17.312 14.035-31.347 31.347-31.347h315.787c17.312 0 31.347 14.035 31.347 31.347v73.86h12.438c9.063 0 13.602 10.957 7.193 17.366l-43.783 43.787z" />
<glyph unicode="&#xe90c;" glyph-name="house-3" d="M947.244 584.234l-333.709 333.709c-27.121 27.121-63.179 42.057-101.535 42.057s-74.413-14.936-101.535-42.057l-333.709-333.709c-26.998-26.998-34.695-65.684-20.081-100.96 10.923-26.371 32.003-45.271 57.925-53.135v-350.547c0-79.178 64.416-143.594 143.594-143.594h507.664c79.178 0 143.594 64.416 143.594 143.594v350.557c25.886 7.868 46.96 26.768 57.877 53.127 14.61 35.274 6.913 73.96-20.085 100.958zM909.406 507.267c-1.797-4.336-9.101-18.486-27.667-18.486-19.289 0-34.983-15.694-34.983-34.983v-374.203c0-44.609-36.291-80.9-80.9-80.9h-507.664c-44.609 0-80.9 36.291-80.9 80.9v374.203c0 19.289-15.694 34.983-35.031 34.983-18.566 0-25.87 14.15-27.667 18.486-1.795 4.336-6.637 19.506 6.491 32.636l333.711 333.709c15.278 15.278 35.595 23.694 57.204 23.694s41.925-8.416 57.204-23.694l333.711-333.709c13.128-13.13 8.286-28.3 6.491-32.636zM778.777 515.438c-8.257 15.216-27.284 20.858-42.502 12.601l-31.445-17.065c3.48 13.153-1.923 27.546-14.179 34.889-14.85 8.898-34.103 4.071-43-10.775l-48.966-81.713-43.144-23.412v49.085l48.464 82.014c8.806 14.904 3.866 34.128-11.040 42.935-12.298 7.268-27.523 5.151-37.424-4.178v35.775c0 17.312-14.035 31.347-31.347 31.347s-31.347-14.035-31.347-31.347v-35.777c-9.901 9.331-25.124 11.448-37.428 4.18-14.904-8.808-19.845-28.030-11.038-42.935l48.467-82.014v-49.085l-43.146 23.414-48.966 81.713c-8.898 14.848-28.147 19.678-43 10.775-12.257-7.344-17.659-21.734-14.179-34.889l-31.445 17.063c-15.214 8.253-34.248 2.616-42.502-12.601-8.257-15.216-2.616-34.245 12.599-42.502l31.445-17.063c-12.923-4.253-22.045-16.624-21.523-30.902 0.619-16.911 14.522-30.202 31.305-30.202 0.387 0 0.777 0.006 1.168 0.021l95.194 3.484 38.67-20.986-38.67-20.984-95.199 3.484c-17.297 0.652-31.838-12.879-32.471-30.181-0.522-14.277 8.6-26.649 21.523-30.902l-31.445-17.065c-15.216-8.257-20.856-27.286-12.599-42.502 5.678-10.466 16.453-16.403 27.579-16.403 5.049 0 10.171 1.223 14.923 3.801l31.445 17.063c-3.477-13.153 1.925-27.544 14.179-34.887 5.045-3.024 10.599-4.464 16.081-4.464 10.656 0 21.044 5.436 26.921 15.239l48.966 81.713 43.144 23.412v-49.087l-48.464-82.010c-8.808-14.904-3.868-34.126 11.036-42.935 12.298-7.268 27.527-5.153 37.428 4.18v-35.779c0-17.312 14.035-31.347 31.347-31.347s31.347 14.035 31.347 31.347v35.756c5.87-5.528 13.609-8.524 21.508-8.522 5.419 0 10.913 1.409 15.916 4.366 14.907 8.806 19.847 28.030 11.040 42.935l-48.464 82.014v49.085l43.144-23.412 48.964-81.713c5.879-9.805 16.263-15.239 26.921-15.239 5.482 0 11.036 1.44 16.081 4.464 12.257 7.344 17.659 21.734 14.179 34.887l31.445-17.063c4.75-2.577 9.872-3.801 14.923-3.801 11.124 0 21.901 5.937 27.579 16.403 8.257 15.216 2.616 34.245-12.599 42.502l-31.445 17.063c12.925 4.253 22.045 16.626 21.525 30.904-0.633 17.299-15.111 30.753-32.471 30.181l-95.199-3.484-38.667 20.984 38.67 20.986 95.196-3.484c0.393-0.015 0.779-0.021 1.168-0.021 16.783 0 30.689 13.291 31.305 30.202 0.522 14.277-8.6 26.651-21.525 30.904l31.445 17.063c15.216 8.253 20.856 27.282 12.599 42.498z" />
<glyph unicode="&#xe90d;" glyph-name="house-4" d="M947.268 584.292l-333.707 333.709c-56.003 55.999-147.121 55.999-203.12 0l-333.707-333.709c-27.008-27.008-34.707-65.709-20.091-100.997 10.923-26.372 32.004-45.279 57.922-53.149v-350.518c0-79.197 64.433-143.63 143.627-143.63h507.661c79.197 0 143.63 64.43 143.63 143.63v350.528c25.884 7.877 46.955 26.78 57.874 53.139 14.62 35.291 6.921 73.99-20.087 100.997zM909.372 507.315c-1.795-4.331-9.090-18.465-27.635-18.465-19.309 0-35.017-15.71-35.017-35.019v-374.201c0-44.588-36.276-80.864-80.864-80.864h-507.663c-44.588 0-80.862 36.276-80.862 80.864v374.201c0 19.309-15.71 35.019-35.065 35.019-18.545 0-25.84 14.133-27.635 18.465-1.793 4.331-6.628 19.484 6.486 32.596l333.705 333.707c15.767 15.767 36.471 23.646 57.179 23.646 20.704 0 41.417-7.883 57.179-23.646l333.707-333.709c13.114-13.112 8.279-28.263 6.486-32.594zM639.141 643.875c0 70.107-57.037 127.143-127.143 127.143s-127.143-57.037-127.143-127.143v-313.493c-26.096-30.33-40.318-68.544-40.318-109.004 0-45.197 17.731-87.559 49.928-119.285 31.588-31.125 73.224-48.176 117.5-48.174 0.845 0 1.697 0.006 2.544 0.019 43.092 0.634 83.879 17.777 114.85 48.268 30.979 30.5 48.743 71.021 50.022 114.096 1.241 41.718-13.302 82.563-40.241 114.050v313.522zM616.648 218.165c-1.638-55.137-47.871-100.656-103.058-101.47-28.271-0.414-54.945 10.275-75.069 30.104-20.129 19.836-31.215 46.321-31.215 74.577 0 28.152 11.017 54.57 31.021 74.385 5.95 5.894 9.296 13.921 9.296 22.296v325.818c0 35.498 28.88 64.378 64.378 64.378s64.378-28.88 64.378-64.378v-325.818c0-8.375 3.347-16.403 9.298-22.296 20.846-20.65 31.845-48.206 30.972-77.596zM543.383 257.188v379.93c0 17.332-14.051 31.383-31.383 31.383s-31.383-14.051-31.383-31.383v-379.932c-9.952-8.729-16.246-21.531-16.246-35.81 0-26.305 21.323-47.628 47.628-47.628s47.628 21.323 47.628 47.628c0 14.281-6.293 27.081-16.246 35.812z" />
<glyph unicode="&#xe90e;" glyph-name="house-5" d="M947.038 585l-332.657 332.659c-56.45 56.454-148.308 56.454-204.76 0l-332.659-332.659c-27.394-27.392-35.2-66.642-20.376-102.433 10.918-26.361 31.848-45.369 57.616-53.555v-348.226c0-79.835 64.952-144.786 144.786-144.786h506.067c79.835 0 144.786 64.952 144.786 144.786l-0.002 348.235c25.738 8.19 46.656 27.192 57.572 53.548 14.826 35.79 7.017 75.039-20.374 102.43zM906.634 507.742c-1.691-4.083-8.57-17.412-26.060-17.412-20.137 0-36.518-16.383-36.518-36.516l0.002-373.026c0-43.56-35.439-78.999-78.999-78.999h-506.067c-43.56 0-78.999 35.439-78.999 78.999v373.024c0 20.135-16.383 36.516-36.564 36.516-17.488 0-24.368 13.328-26.060 17.412-1.691 4.085-6.252 18.374 6.114 30.74l332.659 332.661c15.401 15.401 35.632 23.1 55.862 23.1s40.461-7.699 55.862-23.1l332.657-332.659c12.366-12.366 7.807-26.655 6.114-30.74zM426.425 393.757c0 22.197 8.451 42.415 22.311 57.623l-94.643 17.955c-24.313 4.614-46.825-14.030-46.825-38.777v-73.603c0-24.747 22.512-43.389 46.825-38.777l94.643 17.955c-13.859 15.206-22.311 35.426-22.311 57.623zM669.905 469.336l-94.643-17.955c13.859-15.208 22.311-35.426 22.311-57.623s-8.451-42.415-22.311-57.623l94.643-17.955c24.313-4.614 46.825 14.030 46.825 38.777v73.603c0 24.747-22.51 43.389-46.825 38.777zM455.231 468.568c0.566-2.987 1.493-5.824 2.673-8.513 14.743 12.043 33.573 19.276 54.095 19.276s39.352-7.232 54.095-19.276c1.182 2.688 2.107 5.526 2.675 8.513l18.809 99.143c4.612 24.313-14.030 46.825-38.777 46.825h-73.603c-24.747 0-43.389-22.512-38.777-46.825l18.811-99.143zM568.769 318.944c-0.566 2.987-1.493 5.824-2.673 8.513-14.743-12.043-33.573-19.276-54.095-19.276s-39.352 7.232-54.095 19.276c-1.182-2.688-2.107-5.526-2.675-8.513l-18.809-99.143c-4.612-24.313 14.030-46.825 38.777-46.825h73.603c24.747 0 43.389 22.512 38.777 46.825l-18.811 99.143zM568.769 393.757c0-31.353-25.417-56.77-56.77-56.77s-56.77 25.417-56.77 56.77c0 31.353 25.417 56.77 56.77 56.77s56.77-25.417 56.77-56.77z" />
<glyph unicode="&#xe90f;" glyph-name="house-6" d="M947.27 584.294l-333.708 333.708c-56.003 55.999-147.118 55.999-203.121 0l-333.708-333.708c-27.010-27.008-34.707-65.709-20.091-100.998 10.923-26.37 32.006-45.277 57.922-53.148v-350.519c0-79.197 64.433-143.628 143.628-143.628h507.662c79.197 0 143.63 64.433 143.63 143.628v350.525c25.884 7.879 46.955 26.78 57.874 53.139 14.618 35.291 6.923 73.992-20.087 101zM909.37 507.314c-1.793-4.331-9.088-18.463-27.633-18.463-19.309 0-35.017-15.71-35.017-35.019v-374.202c0-44.588-36.276-80.863-80.865-80.863h-507.664c-44.588 0-80.863 36.276-80.863 80.863v374.2c0 19.309-15.71 35.019-35.065 35.019-18.545 0-25.84 14.133-27.633 18.463-1.795 4.331-6.63 19.484 6.484 32.598l333.708 333.71c15.767 15.765 36.471 23.646 57.179 23.646 20.704 0 41.417-7.885 57.179-23.646l333.708-333.708c13.112-13.114 8.279-28.267 6.482-32.598zM399.363 322.286v-38.412h-114.333v160.428h112.3v-38.41h-68.236v-22.598h58.294v-35.699h-58.294v-25.307h70.27zM419.924 365.444c0 9.789 1.843 19.432 5.536 28.92 3.689 9.49 9.072 18.001 16.156 25.533 7.078 7.532 15.664 13.633 25.759 18.302 10.091 4.668 21.614 7.007 34.571 7.007 15.513 0 28.958-3.203 40.333-9.603 11.371-6.406 19.844-14.877 25.418-25.42l-33.667-23.951c-1.508 3.917-3.502 7.153-5.988 9.718-2.486 2.559-5.235 4.592-8.245 6.101-3.015 1.504-6.141 2.559-9.377 3.163-3.241 0.6-6.364 0.904-9.375 0.904-6.327 0-11.789-1.243-16.382-3.726-4.597-2.486-8.36-5.726-11.298-9.718s-5.122-8.511-6.553-13.555c-1.435-5.051-2.147-10.057-2.147-15.028 0-5.574 0.829-10.923 2.486-16.043 1.655-5.122 4.065-9.641 7.231-13.555 3.163-3.919 7.038-7.044 11.637-9.377 4.592-2.337 9.752-3.502 15.478-3.502 3.011 0 6.101 0.339 9.264 1.017 3.163 0.676 6.214 1.806 9.151 3.387 2.937 1.584 5.571 3.617 7.908 6.101 2.333 2.486 4.18 5.536 5.536 9.151l35.927-21.466c-2.41-5.875-6.063-11.149-10.957-15.817-4.898-4.67-10.473-8.586-16.721-11.75-6.251-3.163-12.957-5.576-20.11-7.231-7.157-1.655-14.122-2.486-20.901-2.486-11.9 0-22.786 2.375-32.648 7.118-9.869 4.747-18.38 11.032-25.533 18.869-7.157 7.829-12.691 16.719-16.608 26.661-3.927 9.94-5.881 20.030-5.881 30.276zM665.989 282.518c-12.202 0-23.273 2.335-33.215 7.007-9.944 4.666-18.455 10.806-25.533 18.415-7.084 7.605-12.58 16.304-16.497 26.098-3.919 9.791-5.875 19.886-5.875 30.28 0 10.542 2.034 20.708 6.101 30.504 4.067 9.789 9.752 18.415 17.060 25.87 7.304 7.457 15.965 13.407 25.985 17.85 10.015 4.442 20.974 6.668 32.876 6.668 12.202 0 23.273-2.337 33.215-7.007s18.449-10.846 25.533-18.526c7.078-7.682 12.54-16.421 16.382-26.211 3.841-9.793 5.762-19.811 5.762-30.052 0-10.545-2.034-20.675-6.101-30.389-4.067-9.718-9.718-18.302-16.949-25.761-7.228-7.454-15.854-13.444-25.87-17.963-10.017-4.523-20.976-6.783-32.874-6.783zM629.611 363.862c0-5.425 0.751-10.66 2.26-15.706 1.504-5.048 3.764-9.528 6.779-13.444 3.011-3.919 6.814-7.082 11.411-9.49 4.592-2.41 10.055-3.615 16.382-3.615 6.325 0 11.823 1.243 16.495 3.728 4.666 2.486 8.473 5.722 11.411 9.716 2.937 3.99 5.117 8.549 6.553 13.67 1.431 5.12 2.147 10.317 2.147 15.591 0 5.423-0.755 10.655-2.26 15.704-1.508 5.044-3.806 9.49-6.892 13.331-3.090 3.841-6.931 6.927-11.526 9.264-4.594 2.333-9.982 3.502-16.156 3.502-6.325 0-11.789-1.207-16.382-3.615-4.597-2.41-8.4-5.615-11.411-9.603-3.013-3.994-5.235-8.513-6.666-13.557-1.433-5.046-2.144-10.206-2.144-15.476z" />
<glyph unicode="&#xe910;" glyph-name="humidity" d="M940.608 545.459l-135.53 385.943c-6.016 17.133-22.194 28.598-40.353 28.598s-34.337-11.465-40.35-28.598l-135.53-385.941c-20.292-57.786-11.619-119.583 23.796-169.553 35.412-49.965 90.843-78.622 152.087-78.622s116.68 28.658 152.092 78.625c35.409 49.965 44.080 111.765 23.788 169.548zM847.031 425.368c-19.166-27.038-49.161-42.549-82.303-42.549-33.14 0-63.137 15.505-82.3 42.546s-23.856 60.486-12.879 91.755l95.179 271.034 95.179-271.034c10.977-31.272 6.284-64.711-12.876-91.752zM480.692 472.833c-6.013 17.133-22.194 28.598-40.35 28.598s-34.337-11.465-40.35-28.598l-112.683-320.89c-17.398-49.54-9.66-104.691 20.7-147.528s79.831-68.412 132.336-68.412 101.977 25.575 132.336 68.412c30.357 42.837 38.095 97.988 20.7 147.528l-112.689 320.89zM502.889 53.872c-14.564-20.549-37.362-32.336-62.55-32.336s-47.983 11.787-62.55 32.336c-14.561 20.549-18.128 45.964-9.785 69.729l72.333 205.978 72.333-205.978c8.351-23.765 4.784-49.181-9.78-69.729zM309.961 511.629c24.466 34.52 30.705 78.964 16.685 118.887l-82.976 236.283c-6.013 17.133-22.194 28.598-40.35 28.598s-34.337-11.465-40.35-28.598l-82.976-236.283c-14.019-39.923-7.781-84.367 16.685-118.887 24.463-34.52 64.332-55.131 106.641-55.131s82.178 20.611 106.641 55.131zM240.178 561.089c-8.582-12.109-22.017-19.055-36.858-19.055s-28.276 6.946-36.858 19.055-10.684 27.087-5.765 41.089l42.623 121.371 42.623-121.371c4.918-14.002 2.814-28.98-5.765-41.089z" />
<glyph unicode="&#xe911;" glyph-name="low" d="M986.505 640.637c-25.771 63.548-63.61 120.543-112.468 169.401s-105.852 86.697-169.401 112.468c-61.351 24.879-126.163 37.495-192.636 37.495s-131.285-12.616-192.638-37.495c-63.548-25.771-120.543-63.61-169.401-112.468-48.858-48.855-86.697-105.852-112.468-169.401-24.879-61.353-37.495-126.165-37.495-192.638s12.616-131.285 37.495-192.638c25.771-63.548 63.61-120.543 112.468-169.401s105.852-86.697 169.401-112.468c61.353-24.879 126.165-37.495 192.638-37.495s131.285 12.616 192.638 37.495c63.548 25.771 120.543 63.61 169.401 112.468s86.697 105.852 112.468 169.401c24.879 61.353 37.495 126.165 37.495 192.638s-12.616 131.285-37.498 192.638zM512.001 904.079c69.853 0 139.698-15.963 203.621-47.86h-407.242c63.923 31.897 133.768 47.86 203.621 47.86zM189.504 770.496c10.569 10.569 21.538 20.489 32.839 29.803h579.313c11.302-9.314 22.27-19.234 32.839-29.803 49.070-49.068 84.588-106.543 106.621-167.784h-163.764c-53.608 90.698-152.367 151.539-265.355 151.539s-211.746-60.842-265.355-151.539h-163.761c22.033 61.242 57.551 118.717 106.621 167.784zM682.425 447.999c0-94.232-69.904-105.696-96.469-105.696s-96.469 11.464-96.469 105.696c0 94.229 69.904 105.696 96.469 105.696s96.469-11.467 96.469-105.696zM483.345 383.967v-36.351h-141.767v200.766h41.943v-164.415h99.824zM66.702 546.791h154.073c-10.885-31.522-16.813-65.357-16.813-100.582 0-33.894 5.489-66.501 15.602-97.003h-152.862c-14.36 65.019-14.36 132.566 0 197.585zM512.001-8.079c-69.853 0-139.698 15.963-203.621 47.86h407.24c-63.92-31.897-133.768-47.86-203.618-47.86zM834.499 125.501c-11.643-11.645-36.298-32.627-36.298-32.627h-572.399c0 0-24.655 20.984-36.298 32.627-49.070 49.068-84.588 106.543-106.621 167.784h161.661c53.105-92.677 152.985-155.118 267.457-155.118s214.352 62.441 267.457 155.118h161.661c-22.033-61.239-57.554-118.714-106.621-167.784zM957.301 349.206h-152.862c10.113 30.502 15.602 63.109 15.602 97.003 0 35.224-5.928 69.059-16.813 100.582h154.073c14.36-65.019 14.36-132.566 0-197.585zM531.431 447.999c0-56.206 31.875-70.186 54.525-70.186s54.525 13.98 54.525 70.186c0 56.203-31.875 70.186-54.525 70.186s-54.525-13.983-54.525-70.186z" />
<glyph unicode="&#xe912;" glyph-name="mode" d="M883.413 436.838c0 206.177-167.736 373.916-373.916 373.916s-373.916-167.736-373.916-373.916c0-21.844 17.709-39.554 39.554-39.554s39.554 17.709 39.554 39.554c0 162.557 132.249 294.809 294.809 294.809s294.809-132.251 294.809-294.809c0-21.844 17.709-39.554 39.554-39.554s39.554 17.709 39.554 39.554zM509.498 608.421c-94.61 0-171.581-76.971-171.581-171.581 0-21.844 17.709-39.554 39.554-39.554s39.554 17.709 39.554 39.554c0 50.99 41.484 92.474 92.474 92.474s92.474-41.484 92.474-92.474c0-21.844 17.709-39.554 39.554-39.554s39.554 17.709 39.554 39.554c0 94.61-76.971 171.581-171.581 171.581zM136.895 181.604l-42.198 149.188h-94.697v-239.233h70.442v81.074l-1.664 37.212-3.323 35.221h0.665l43.527-153.507h54.492l43.527 153.507h0.665l-3.987-43.195-0.997-37.212v-73.1h70.442v239.233h-94.697zM421.96 337.105c-74.429 0-125.266-48.843-125.266-123.935 0-81.407 50.172-127.924 125.266-127.924 70.775 0 125.598 45.853 125.598 127.26-0.003 63.13-40.208 124.599-125.598 124.599zM421.96 143.725c-37.547 0-46.85 38.211-46.85 68.778 0 30.235 10.632 66.12 46.185 66.12 34.554 0.997 47.847-33.56 47.847-66.12-0.003-39.538-13.293-68.778-47.182-68.778zM677.126 330.792h-104.996v-239.233h103.005c76.752 0 126.927 34.557 126.927 124.599-0.003 78.749-47.852 114.634-124.937 114.634zM667.158 147.38h-16.615v127.592h14.954c41.866 0 58.146-13.293 58.146-63.13 0-45.191-19.938-64.462-56.485-64.462zM902.723 147.38v37.547h98.684v55.821h-98.684v34.224h116.625v55.821h-195.041v-239.233h199.693v55.821z" />
<glyph unicode="&#xe913;" glyph-name="night" d="M98.142 574.543l108.378-33.688 33.688-108.375c4.665-15.008 17.444-26.064 32.965-28.522 2.161-0.341 4.321-0.509 6.465-0.509 13.263 0 25.891 6.402 33.702 17.447l65.53 92.662 113.484-1.45c15.595-0.182 30.176 8.538 37.313 22.539 7.134 14.001 5.7 30.84-3.699 43.432l-67.878 90.961 36.446 107.481c5.048 14.882 1.206 31.341-9.906 42.452-11.108 11.114-27.57 14.956-42.452 9.906l-107.481-36.446-90.953 67.872c-12.592 9.399-29.431 10.839-43.434 3.699-14.001-7.137-22.74-21.6-22.536-37.313l1.45-113.484-92.665-65.53c-12.831-9.074-19.396-24.644-16.938-40.167 2.455-15.52 13.514-28.299 28.52-32.965zM244.618 658.321c11.095 7.847 17.618 20.648 17.444 34.233l-0.658 51.543 41.31-30.826c10.891-8.125 25.079-10.373 37.952-6.011l48.815 16.552-16.555-48.812c-4.362-12.87-2.117-27.061 6.011-37.949l30.829-41.312-51.54 0.658c-0.176 0.003-0.352 0.003-0.528 0.003-13.39 0-25.963-6.495-33.708-17.447l-29.761-42.086-15.303 49.222c-4.032 12.977-14.194 23.136-27.168 27.171l-49.222 15.3 42.083 29.761zM709.501 956.348c-15.647 7.054-34.024 3.696-46.162-8.441s-15.498-30.518-8.441-46.162c26.312-58.344 39.65-120.659 39.65-185.212 0-248.724-202.353-451.080-451.080-451.080-64.553 0-126.865 13.34-185.209 39.65-15.644 7.054-34.027 3.696-46.162-8.441-12.138-12.135-15.498-30.518-8.441-46.162 86.15-191.049 277.191-314.496 486.701-314.496 294.256 0 533.65 239.394 533.65 533.647-0.006 209.506-123.455 400.548-314.505 486.698zM490.35 18.572c-141.464 0-272.98 66.595-357.295 175.705 36.014-7.58 72.895-11.395 110.412-11.395 294.256 0 533.65 239.394 533.65 533.65 0 37.517-3.815 74.395-11.395 110.412 109.113-84.315 175.708-215.831 175.708-357.295 0-248.727-202.356-451.077-451.080-451.077z" />
<glyph unicode="&#xe914;" glyph-name="off-button" d="M336.324 447.999c0-43.271 24.541-54.036 41.98-54.036s41.982 10.768 41.982 54.036c0 43.271-24.541 54.036-41.982 54.036-17.439 0-41.98-10.765-41.98-54.036zM986.505 640.637c-25.771 63.548-63.61 120.543-112.468 169.401s-105.852 86.697-169.401 112.468c-61.351 24.879-126.163 37.495-192.636 37.495s-131.285-12.616-192.638-37.495c-63.548-25.771-120.543-63.61-169.401-112.468-48.858-48.855-86.697-105.852-112.468-169.401-24.879-61.353-37.495-126.165-37.495-192.638s12.616-131.285 37.495-192.638c25.771-63.548 63.61-120.543 112.468-169.401s105.852-86.697 169.401-112.468c61.353-24.879 126.165-37.495 192.638-37.495s131.285 12.616 192.638 37.495c63.548 25.771 120.543 63.61 169.401 112.468s86.697 105.852 112.468 169.401c24.879 61.353 37.495 126.165 37.495 192.638s-12.616 131.285-37.498 192.638zM512.001 904.079c69.853 0 139.698-15.963 203.621-47.86h-407.242c63.923 31.897 133.768 47.86 203.621 47.86zM189.504 770.496c10.569 10.569 21.538 20.489 32.839 29.803h579.313c11.302-9.314 22.27-19.234 32.839-29.803 49.068-49.068 84.588-106.543 106.621-167.784h-163.764c-53.608 90.698-152.367 151.539-265.355 151.539-112.985 0-211.746-60.842-265.355-151.539h-163.761c22.033 61.242 57.551 118.717 106.621 167.784zM710.285 463.069v-27.34h-68.028v-65.016h-32.294v154.573h110.010v-27.342h-77.716v-34.875h68.028zM578.74 463.069v-27.34h-68.028v-65.016h-32.294v154.573h110.010v-27.342h-77.716v-34.875h68.028zM452.574 447.999c0-72.549-53.821-81.376-74.271-81.376s-74.271 8.827-74.271 81.376c0 72.551 53.821 81.376 74.271 81.376s74.271-8.824 74.271-81.376zM66.702 546.791h154.073c-10.885-31.522-16.813-65.357-16.813-100.582 0-33.894 5.491-66.501 15.602-97.003h-152.862c-14.36 65.019-14.36 132.566 0 197.585zM512.001-8.079c-69.853 0-139.698 15.963-203.621 47.86h407.24c-63.92-31.897-133.768-47.86-203.618-47.86zM834.499 125.501c-11.643-11.645-36.298-32.627-36.298-32.627h-572.399c0 0-24.655 20.984-36.298 32.627-49.068 49.068-84.588 106.543-106.621 167.784h161.661c53.105-92.677 152.985-155.118 267.457-155.118s214.352 62.441 267.457 155.118h161.661c-22.033-61.239-57.554-118.714-106.621-167.784zM957.301 349.206h-152.862c10.113 30.502 15.602 63.109 15.602 97.003 0 35.224-5.928 69.059-16.813 100.582h154.073c14.36-65.019 14.36-132.566 0-197.585z" />
<glyph unicode="&#xe915;" glyph-name="on-button" d="M986.505 640.637c-25.771 63.548-63.61 120.543-112.468 169.401s-105.852 86.697-169.401 112.468c-61.351 24.879-126.163 37.495-192.636 37.495s-131.285-12.616-192.638-37.495c-63.548-25.771-120.543-63.61-169.401-112.468-48.858-48.855-86.697-105.852-112.468-169.401-24.879-61.353-37.495-126.165-37.495-192.638s12.616-131.285 37.495-192.638c25.771-63.548 63.61-120.543 112.468-169.401s105.852-86.697 169.401-112.468c61.353-24.879 126.165-37.495 192.638-37.495s131.285 12.616 192.638 37.495c63.548 25.771 120.543 63.61 169.401 112.468s86.697 105.852 112.468 169.401c24.879 61.353 37.495 126.165 37.495 192.638s-12.616 131.285-37.498 192.638zM512.001 904.079c69.853 0 139.698-15.963 203.621-47.86h-407.242c63.923 31.897 133.768 47.86 203.621 47.86zM189.504 770.496c10.569 10.569 21.538 20.489 32.839 29.803h579.313c11.302-9.314 22.27-19.234 32.839-29.803 49.068-49.068 84.588-106.543 106.621-167.784h-163.764c-53.608 90.698-152.367 151.539-265.355 151.539-112.985 0-211.746-60.842-265.355-151.539h-163.761c22.033 61.242 57.551 118.717 106.621 167.784zM690.699 560.984v-200.766h-41.943l-81.929 143.165h-0.559v-143.165h-39.147v200.766h44.18l79.693-139.807h0.559v139.807h39.147zM495.536 460.603c0-94.232-69.904-105.696-96.469-105.696s-96.469 11.464-96.469 105.696c0 94.232 69.904 105.696 96.469 105.696s96.469-11.467 96.469-105.696zM66.702 546.791h154.073c-10.885-31.522-16.813-65.357-16.813-100.582 0-33.894 5.491-66.501 15.602-97.003h-152.862c-14.36 65.019-14.36 132.566 0 197.585zM512.001-8.079c-69.853 0-139.698 15.963-203.621 47.86h407.24c-63.92-31.897-133.768-47.86-203.618-47.86zM834.499 125.501c-11.643-11.645-36.298-32.627-36.298-32.627h-572.399c0 0-24.655 20.984-36.298 32.627-49.068 49.068-84.588 106.543-106.621 167.784h161.661c53.105-92.677 152.985-155.118 267.457-155.118s214.352 62.441 267.457 155.118h161.661c-22.033-61.239-57.554-118.714-106.621-167.784zM957.301 349.206h-152.862c10.113 30.502 15.602 63.109 15.602 97.003 0 35.224-5.928 69.059-16.813 100.582h154.073c14.36-65.019 14.36-132.566 0-197.585zM344.541 460.603c0-56.206 31.875-70.186 54.525-70.186s54.525 13.98 54.525 70.186c0 56.203-31.875 70.186-54.525 70.186s-54.525-13.983-54.525-70.186z" />
<glyph unicode="&#xe916;" glyph-name="sun" d="M750.65 651.011c9.144 0 18.289 3.49 25.263 10.466l35.453 35.453c0.033 0.033 0.067 0.064 0.098 0.098l73.782 73.782c13.951 13.951 13.951 36.575 0 50.529-13.951 13.951-36.575 13.951-50.529 0l-109.33-109.33c-13.954-13.951-13.954-36.575 0-50.529 6.974-6.979 16.119-10.469 25.263-10.469zM775.265 234.616c-13.951 13.951-36.575 13.951-50.529 0s-13.954-36.575 0-50.529l35.448-35.448c0.033-0.036 0.069-0.069 0.102-0.102l73.779-73.779c6.977-6.977 16.121-10.466 25.263-10.466s18.289 3.49 25.263 10.466c13.954 13.951 13.954 36.575 0 50.529l-109.328 109.33zM247.344 235.264l-109.328-109.33c-13.951-13.951-13.951-36.575 0-50.529 6.977-6.977 16.121-10.466 25.263-10.466s18.289 3.49 25.263 10.466l73.779 73.782c0.036 0.036 0.069 0.067 0.102 0.102l35.448 35.448c13.951 13.951 13.951 36.575 0 50.529-13.951 13.951-36.575 13.951-50.529-0.002zM212.443 697.676c0.048-0.048 0.093-0.091 0.138-0.138l35.413-35.413c6.979-6.979 16.121-10.466 25.266-10.466 9.142 0 18.289 3.49 25.263 10.466 13.954 13.951 13.954 36.575 0 50.529l-109.328 109.332c-13.956 13.954-36.575 13.954-50.529 0-13.954-13.951-13.954-36.573 0-50.529l73.777-73.782zM988.27 483.73h-192.673c-16.171 129.096-118.77 231.697-247.868 247.866v192.675c0 19.732-15.997 35.73-35.73 35.73s-35.73-15.997-35.73-35.73v-192.675c-129.096-16.171-231.697-118.77-247.868-247.866h-192.673c-19.732 0-35.73-15.997-35.73-35.73s15.997-35.73 35.73-35.73h192.673c16.171-129.096 118.77-231.697 247.868-247.866v-192.675c0-19.732 15.997-35.73 35.73-35.73s35.73 15.997 35.73 35.73v192.675c129.096 16.171 231.697 118.77 247.868 247.866h192.673c19.732 0 35.73 15.997 35.73 35.73s-15.995 35.73-35.73 35.73zM512 233.634c-118.203 0-214.368 96.165-214.368 214.366s96.165 214.366 214.368 214.366 214.368-96.165 214.368-214.366-96.165-214.366-214.368-214.366z" />
<glyph unicode="&#xe917;" glyph-name="thermometer" d="M839.866 302.231v526.727c0.002 72.258-58.784 131.042-131.040 131.042h-67.249c-72.255 0-131.042-58.784-131.042-131.040v-388.6c-4.75-1.017-9.258-1.537-13.581-1.537-7.936 0-16.46 1.689-26.064 5.16-10.474 3.786-21.638 9.495-33.462 15.54-13.12 6.706-26.686 13.643-41.055 18.838-16.906 6.111-32.755 9.080-48.455 9.080-15.702 0-31.552-2.971-48.457-9.082-14.367-5.195-27.935-12.13-41.055-18.838-11.822-6.043-22.988-11.754-33.464-15.54-9.6-3.472-18.124-5.158-26.060-5.158s-16.462 1.689-26.062 5.158c-17.11 6.183-35.992-2.668-42.175-19.775s2.67-35.989 19.775-42.175c16.906-6.111 32.755-9.082 48.459-9.082 15.702 0 31.554 2.971 48.455 9.082 14.374 5.195 27.94 12.13 41.055 18.838 11.827 6.045 22.995 11.756 33.464 15.542 9.602 3.469 18.126 5.158 26.062 5.158s16.462-1.689 26.060-5.158c10.472-3.786 21.64-9.495 33.466-15.54 13.118-6.708 26.681-13.643 41.053-18.838 16.906-6.111 32.755-9.082 48.457-9.082 4.506 0 9.029 0.274 13.581 0.766v-71.489c-7.786-8.75-14.758-18.050-20.977-27.762-5.812 0.718-11.974 2.251-18.667 4.673-10.474 3.786-21.638 9.495-33.462 15.54-13.12 6.706-26.686 13.643-41.055 18.838-16.906 6.111-32.755 9.080-48.455 9.080-15.702 0-31.552-2.971-48.457-9.082-14.367-5.195-27.935-12.13-41.055-18.838-11.822-6.043-22.988-11.754-33.464-15.54-9.598-3.472-18.122-5.158-26.060-5.158s-16.464 1.686-26.062 5.158c-17.11 6.183-35.992-2.668-42.175-19.775s2.67-35.989 19.775-42.175c16.903-6.111 32.755-9.082 48.459-9.082s31.556 2.971 48.455 9.080c14.374 5.195 27.94 12.13 41.055 18.838 11.827 6.045 22.995 11.756 33.464 15.542 9.602 3.469 18.126 5.158 26.062 5.158s16.462-1.689 26.060-5.158c10.472-3.786 21.64-9.495 33.466-15.54 13.118-6.708 26.681-13.643 41.053-18.838 4.728-1.708 9.365-3.147 13.948-4.367-4.833-18.269-7.369-37.276-7.369-56.692 0-12.36 1.023-24.558 3.004-36.503-6.64 3.052-13.524 6.565-20.649 10.208-13.116 6.706-26.677 13.638-41.055 18.838-16.906 6.111-32.755 9.080-48.455 9.080-15.702 0-31.552-2.971-48.457-9.082-14.376-5.197-27.937-12.13-41.055-18.838-11.822-6.043-22.99-11.754-33.462-15.54-9.602-3.472-18.126-5.158-26.062-5.158s-16.462 1.689-26.064 5.158c-17.105 6.186-35.989-2.672-42.173-19.78s2.672-35.989 19.78-42.173c16.906-6.111 32.755-9.080 48.455-9.080s31.549 2.971 48.457 9.082c14.372 5.197 27.937 12.132 41.053 18.838 11.822 6.043 22.988 11.752 33.464 15.54 9.602 3.469 18.126 5.158 26.062 5.158s16.462-1.689 26.060-5.158c10.478-3.788 21.644-9.497 33.466-15.54 13.118-6.706 26.681-13.64 41.057-18.84 12.918-4.668 25.217-7.49 37.307-8.568 9.543-16.016 21.194-30.928 34.834-44.382 41.525-40.952 96.286-63.391 154.524-63.389 1.050 0 2.11 0.007 3.16 0.022 57.232 0.797 111.24 23.64 152.075 64.32 40.84 40.682 63.885 94.604 64.893 151.832 0.986 55.952-18.603 108.708-55.427 150.057zM520.948 156.126c0 41.479 16.231 80.4 45.701 109.593 6.245 6.186 9.758 14.611 9.758 23.401v539.841c0 35.932 29.233 65.165 65.167 65.165h67.249c35.932 0 65.167-29.233 65.167-65.165v-539.841c0-8.79 3.513-17.215 9.758-23.401 30.206-29.92 46.428-69.833 45.68-112.388-1.451-82.358-69.647-150.297-152.021-151.443-41.595-0.567-80.889 15.188-110.513 44.402-29.628 29.222-45.947 68.228-45.947 109.837zM740.718 156.126c0 24.172-13.1 45.271-32.579 56.628v590.017c0 18.19-14.747 32.937-32.937 32.937s-32.937-14.747-32.937-32.937v-590.019c-19.479-11.355-32.579-32.454-32.579-56.628 0-36.185 29.334-65.516 65.516-65.516 36.183 0.002 65.516 29.334 65.516 65.519z" />
<glyph unicode="&#xe918;" glyph-name="thermometer-1" d="M753.693 302.231v526.73c0 72.255-58.782 131.040-131.040 131.040h-67.251c-59.362 0-109.6-39.687-125.651-93.915h-181.971c-18.19 0-32.937-14.747-32.937-32.937s14.747-32.937 32.937-32.937h176.581v-79.293h-176.581c-18.19 0-32.937-14.747-32.937-32.937s14.747-32.937 32.937-32.937h176.581v-79.293h-176.581c-18.19 0-32.937-14.747-32.937-32.937s14.747-32.937 32.937-32.937h176.581v-207.649c-35.866-40.304-55.46-91.66-55.46-146.103 0-59.379 23.284-115.043 65.567-156.739 41.525-40.95 96.286-63.391 154.524-63.389 1.050 0 2.108 0.007 3.16 0.022 57.229 0.797 111.238 23.638 152.075 64.32 40.84 40.682 63.885 94.604 64.893 151.832 0.986 55.956-18.603 108.713-55.427 150.062zM591.236 1.89c-41.692-0.604-80.889 15.188-110.511 44.402-29.63 29.22-45.947 68.226-45.947 109.837 0 41.479 16.231 80.4 45.701 109.593 6.245 6.186 9.758 14.611 9.758 23.401v539.839c0 35.932 29.233 65.165 65.167 65.165h67.251c35.932 0 65.165-29.233 65.165-65.165v-539.841c0-8.79 3.513-17.215 9.758-23.401 30.206-29.92 46.428-69.833 45.677-112.388-1.449-82.358-69.645-150.295-152.021-151.441zM621.966 212.754v590.017c0 18.19-14.747 32.937-32.937 32.937s-32.937-14.747-32.937-32.937v-590.019c-19.479-11.355-32.579-32.454-32.579-56.628 0-36.185 29.334-65.516 65.516-65.516s65.516 29.334 65.516 65.516c0 24.174-13.1 45.275-32.579 56.63z" />
<glyph unicode="&#xe919;" glyph-name="thermometer-2" d="M753.693 302.231v526.73c0 72.255-58.782 131.040-131.040 131.040h-67.251c-59.362 0-109.6-39.687-125.651-93.915h-181.969c-18.19 0-32.937-14.747-32.937-32.937s14.747-32.937 32.937-32.937h176.581v-79.293h-176.581c-18.19 0-32.937-14.747-32.937-32.937s14.747-32.937 32.937-32.937h176.581v-79.293h-176.581c-18.19 0-32.937-14.747-32.937-32.937s14.747-32.937 32.937-32.937h176.581v-207.649c-35.866-40.304-55.46-91.66-55.46-146.101 0-59.379 23.284-115.043 65.565-156.739 41.525-40.95 96.286-63.391 154.524-63.389 1.050 0 2.108 0.007 3.16 0.022 57.229 0.797 111.238 23.638 152.075 64.32 40.84 40.682 63.885 94.604 64.893 151.832 0.986 55.954-18.603 108.71-55.427 150.060zM480.479 265.719c6.245 6.186 9.756 14.611 9.756 23.401v539.841c0.002 35.932 29.235 65.165 65.17 65.165h67.251c35.932 0 65.165-29.233 65.165-65.165v-539.841c0-8.79 3.513-17.215 9.758-23.401 30.206-29.92 46.428-69.833 45.677-112.388-1.447-82.358-69.645-150.295-152.018-151.441-41.663-0.604-80.892 15.188-110.511 44.402-29.628 29.22-45.947 68.226-45.947 109.837-0.002 41.477 16.229 80.398 45.699 109.591zM589.029 90.609c36.185 0 65.516 29.334 65.516 65.516 0 24.172-13.1 45.271-32.579 56.628v426.282c0 18.19-14.747 32.937-32.937 32.937s-32.937-14.747-32.937-32.937v-426.282c-19.479-11.355-32.579-32.454-32.579-56.628 0-36.185 29.332-65.516 65.516-65.516z" />
<glyph unicode="&#xe91a;" glyph-name="thermometer-3" d="M753.693 302.231v526.73c0 72.255-58.782 131.040-131.040 131.040h-67.251c-59.362 0-109.6-39.687-125.651-93.915h-181.969c-18.19 0-32.937-14.747-32.937-32.937s14.747-32.937 32.937-32.937h176.581v-79.293h-176.581c-18.19 0-32.937-14.747-32.937-32.937s14.747-32.937 32.937-32.937h176.581v-79.293h-176.581c-18.19 0-32.937-14.747-32.937-32.937s14.747-32.937 32.937-32.937h176.581v-207.649c-35.866-40.304-55.46-91.66-55.46-146.101 0-59.379 23.284-115.043 65.565-156.739 41.525-40.95 96.286-63.391 154.524-63.389 1.050 0 2.108 0.007 3.16 0.022 57.229 0.797 111.238 23.638 152.075 64.32 40.84 40.682 63.885 94.604 64.893 151.832 0.986 55.954-18.603 108.71-55.427 150.060zM480.479 265.719c6.245 6.186 9.756 14.611 9.756 23.401v539.841c0.002 35.932 29.235 65.165 65.17 65.165h67.251c35.932 0 65.165-29.233 65.165-65.165v-539.841c0-8.79 3.513-17.215 9.758-23.401 30.206-29.92 46.428-69.833 45.677-112.388-1.447-82.358-69.645-150.295-152.018-151.441-41.635-0.604-80.892 15.188-110.511 44.402-29.628 29.22-45.947 68.226-45.947 109.837-0.002 41.477 16.229 80.398 45.699 109.591zM589.029 90.609c36.185 0 65.516 29.334 65.516 65.516 0 24.172-13.1 45.271-32.579 56.628v211.092c0 18.19-14.747 32.937-32.937 32.937s-32.937-14.747-32.937-32.937v-211.092c-19.479-11.355-32.579-32.454-32.579-56.628 0-36.185 29.332-65.516 65.516-65.516z" />
<glyph unicode="&#xe91b;" glyph-name="thermometer-4" d="M643.246 371.412c-32.127 0-62.603-7.189-89.923-20.024v477.572c0 72.255-58.784 131.040-131.040 131.040h-67.249c-72.255 0-131.040-58.784-131.040-131.040v-526.732c-35.866-40.304-55.46-91.66-55.46-146.103 0-59.379 23.284-115.043 65.567-156.739 41.525-40.95 96.286-63.391 154.524-63.389 1.050 0 2.108 0.007 3.16 0.022 48.657 0.676 94.98 17.299 132.864 47.26 33.881-22.918 74.706-36.312 118.6-36.312 117.019 0 212.221 95.202 212.221 212.221s-95.206 212.223-212.225 212.223zM289.867 828.96c0 35.932 29.233 65.165 65.165 65.165h67.249c35.932 0 65.167-29.233 65.167-65.165v-525.831c-25.744-27.845-44.147-62.572-52.076-101.082-4.082 4.152-8.715 7.756-13.779 10.707v590.017c0 18.19-14.747 32.937-32.937 32.937s-32.937-14.747-32.937-32.937v-590.019c-19.479-11.355-32.579-32.454-32.579-56.628 0-36.185 29.334-65.516 65.516-65.516 18.862 0 35.851 7.982 47.805 20.739 7.029-30.388 20.61-58.292 39.156-82.154-24.301-16.805-53.501-26.87-84.756-27.305-41.613-0.632-80.889 15.188-110.511 44.402-29.63 29.22-45.947 68.226-45.947 109.837 0 41.479 16.231 80.4 45.701 109.593 6.245 6.186 9.758 14.611 9.758 23.401v539.841zM496.899 159.191c0 80.696 65.65 146.347 146.347 146.347s146.347-65.65 146.347-146.347-65.65-146.347-146.347-146.347-146.347 65.65-146.347 146.347zM717.192 181.149h-147.892c-12.127 0-21.958-9.831-21.958-21.958s9.831-21.958 21.958-21.958h147.892c12.127 0 21.958 9.831 21.958 21.958s-9.831 21.958-21.958 21.958z" />
<glyph unicode="&#xe91c;" glyph-name="thermometer-5" d="M643.246 371.412c-32.127 0-62.603-7.189-89.923-20.024v477.572c0 72.255-58.784 131.040-131.040 131.040h-67.249c-72.255 0-131.040-58.784-131.040-131.040v-526.732c-35.866-40.304-55.46-91.66-55.46-146.103 0-59.379 23.284-115.043 65.567-156.739 41.525-40.95 96.286-63.391 154.524-63.389 1.050 0 2.108 0.007 3.16 0.022 48.657 0.676 94.98 17.299 132.864 47.26 33.881-22.918 74.706-36.312 118.6-36.312 117.019 0 212.221 95.202 212.221 212.221s-95.206 212.223-212.225 212.223zM289.867 828.96c0 35.932 29.233 65.165 65.165 65.165h67.249c35.932 0 65.167-29.233 65.167-65.165v-525.831c-25.744-27.845-44.147-62.572-52.076-101.082-4.082 4.152-8.715 7.756-13.779 10.707v590.017c0 18.19-14.747 32.937-32.937 32.937s-32.937-14.747-32.937-32.937v-590.019c-19.479-11.355-32.579-32.454-32.579-56.628 0-36.185 29.334-65.516 65.516-65.516 18.862 0 35.851 7.982 47.805 20.739 7.029-30.388 20.61-58.292 39.156-82.154-24.301-16.805-53.501-26.87-84.756-27.305-41.584-0.632-80.889 15.188-110.511 44.402-29.63 29.22-45.947 68.226-45.947 109.837 0 41.479 16.231 80.4 45.701 109.593 6.245 6.186 9.758 14.611 9.758 23.401v539.841zM496.899 159.191c0 80.696 65.65 146.347 146.347 146.347s146.347-65.65 146.347-146.347-65.65-146.347-146.347-146.347-146.347 65.65-146.347 146.347zM717.192 181.149h-51.988v51.988c0 12.127-9.831 21.958-21.958 21.958s-21.958-9.831-21.958-21.958v-51.988h-51.988c-12.127 0-21.958-9.831-21.958-21.958s9.831-21.958 21.958-21.958h51.988v-51.986c0-12.127 9.831-21.958 21.958-21.958s21.958 9.831 21.958 21.958v51.986h51.988c12.127 0 21.958 9.831 21.958 21.958s-9.831 21.958-21.958 21.958z" />
<glyph unicode="&#xe91d;" glyph-name="thermometer-6" d="M643.248 371.412c-32.127 0-62.603-7.189-89.923-20.024v477.572c0 72.255-58.786 131.040-131.042 131.040h-67.249c-72.255 0-131.040-58.784-131.040-131.040v-526.732c-35.866-40.304-55.46-91.66-55.46-146.103 0-59.379 23.284-115.043 65.567-156.739 41.525-40.95 96.286-63.391 154.524-63.389 1.050 0 2.108 0.007 3.16 0.022 48.657 0.676 94.98 17.299 132.862 47.26 33.881-22.918 74.706-36.314 118.602-36.314 117.019 0 212.219 95.202 212.219 212.221s-95.202 212.225-212.221 212.225zM643.248 12.845c-80.696 0-146.347 65.65-146.347 146.347s65.65 146.347 146.347 146.347 146.344-65.65 146.344-146.347-65.648-146.347-146.344-146.347zM289.867 828.96c0 35.932 29.233 65.165 65.165 65.165h67.249c35.932 0 65.167-29.233 65.167-65.165v-525.831c-25.744-27.845-44.147-62.572-52.076-101.082-4.082 4.152-8.715 7.756-13.779 10.707v590.017c0 18.19-14.747 32.937-32.937 32.937s-32.937-14.747-32.937-32.937v-590.019c-19.479-11.355-32.579-32.454-32.579-56.628 0-36.185 29.334-65.516 65.516-65.516 18.862 0 35.851 7.982 47.805 20.739 7.029-30.388 20.61-58.292 39.156-82.154-24.301-16.805-53.501-26.87-84.756-27.305-41.554-0.619-80.889 15.188-110.511 44.402-29.63 29.22-45.947 68.226-45.947 109.837 0 41.479 16.231 80.4 45.701 109.593 6.245 6.186 9.758 14.611 9.758 23.401v539.841zM658.775 253.908c-4.117 4.117-9.703 6.432-15.527 6.432s-11.407-2.314-15.527-6.432l-26.583-26.583c-6.278-6.28-8.157-15.724-4.761-23.93 3.399-8.206 11.405-13.555 20.287-13.555h4.624v-125.932c0-12.127 9.833-21.958 21.958-21.958s21.958 9.831 21.958 21.958v125.932h4.622c8.882 0 16.886 5.351 20.285 13.555 3.399 8.206 1.52 17.65-4.758 23.93l-26.58 26.583z" />
<glyph unicode="&#xe91e;" glyph-name="thermometer-7" d="M643.248 371.412c-32.127 0-62.603-7.189-89.923-20.024v477.572c0 72.255-58.786 131.040-131.042 131.040h-67.249c-72.255 0-131.042-58.784-131.042-131.040v-526.732c-35.866-40.304-55.462-91.66-55.462-146.103 0-59.377 23.284-115.041 65.565-156.737 41.527-40.952 96.289-63.391 154.526-63.389 1.050 0 2.108 0.007 3.16 0.022 48.657 0.676 94.978 17.299 132.862 47.26 33.881-22.918 74.706-36.312 118.6-36.312 117.019 0 212.219 95.202 212.219 212.221s-95.195 212.221-212.214 212.221zM643.248 12.845c-80.696 0-146.347 65.65-146.347 146.347s65.65 146.347 146.347 146.347 146.344-65.65 146.344-146.347-65.648-146.347-146.344-146.347zM289.869 828.96c0 35.932 29.233 65.165 65.165 65.165h67.249c35.932 0 65.167-29.233 65.167-65.165v-525.831c-25.744-27.845-44.147-62.572-52.076-101.082-4.082 4.152-8.715 7.756-13.781 10.709v590.015c0 18.19-14.747 32.937-32.937 32.937s-32.937-14.747-32.937-32.937v-590.019c-19.479-11.355-32.579-32.454-32.579-56.628 0-36.185 29.334-65.516 65.516-65.516 18.862 0 35.851 7.982 47.805 20.739 7.029-30.388 20.61-58.292 39.158-82.154-24.301-16.805-53.501-26.87-84.754-27.305-41.666-0.604-80.892 15.188-110.513 44.402-29.628 29.22-45.947 68.226-45.947 109.835 0 41.479 16.231 80.4 45.701 109.593 6.247 6.186 9.758 14.611 9.758 23.401v539.843zM669.831 112.449h-4.622v125.932c0 12.127-9.833 21.958-21.958 21.958s-21.958-9.831-21.958-21.958v-125.932h-4.624c-8.882 0-16.888-5.351-20.287-13.555-3.397-8.206-1.517-17.65 4.761-23.93l26.583-26.583c4.119-4.117 9.703-6.432 15.527-6.432s11.409 2.314 15.527 6.432l26.58 26.583c6.278 6.28 8.157 15.724 4.758 23.93-3.399 8.204-11.403 13.555-20.285 13.555z" />
<glyph unicode="&#xe91f;" glyph-name="thermometer-8" d="M623.495 418.213c-31.005 0-60.661-5.886-87.911-16.594v430.271c0 70.641-57.469 128.11-128.11 128.11h-65.744c-70.639 0-128.11-57.469-128.11-128.11v-514.947c-35.064-39.402-54.219-89.609-54.219-142.832 0-58.049 22.763-112.467 64.098-153.231 40.596-40.036 94.134-61.973 151.071-61.971 1.026 0 2.059 0.006 3.087 0.021 35.407 0.492 69.548 9.628 99.967 26.342 40.529-30.895 91.093-49.271 145.872-49.271 132.947 0 241.105 108.159 241.105 241.105 0 132.944-108.161 241.105-241.105 241.105zM623.495 0.401c-97.436 0-176.705 79.271-176.705 176.705s79.271 176.705 176.705 176.705 176.705-79.269 176.705-176.705-79.271-176.705-176.705-176.705zM278.020 831.89c0 35.128 28.579 63.709 63.709 63.709h65.744c35.128 0 63.707-28.579 63.707-63.709v-468.025c-26.894-21.973-48.968-49.625-64.381-81.113v523.536c0 17.783-14.417 32.2-32.2 32.2s-32.2-14.417-32.2-32.2v-576.819c-19.043-11.101-31.85-31.728-31.85-55.361 0-35.375 28.678-64.051 64.051-64.051 5.764 0 11.343 0.773 16.654 2.2 7.994-28.596 21.141-55.058 38.37-78.328-16.469-6.577-34.291-10.349-52.866-10.607-40.695-0.58-79.082 14.849-108.043 43.41-28.965 28.566-44.917 66.7-44.917 107.377 0 40.551 15.868 78.601 44.679 107.141 6.105 6.047 9.54 14.284 9.54 22.877v527.761zM746.85 132.551l-10.804 5.863c4.68 3.46 7.629 9.091 7.402 15.345-0.367 10.070-8.804 17.923-18.902 17.568l-46.049-1.685-13.756 7.466 13.756 7.464 46.049-1.685c0.228-0.009 0.453-0.013 0.678-0.013 9.77 0 17.863 7.737 18.223 17.579 0.23 6.255-2.722 11.886-7.402 15.345l10.804 5.863c8.857 4.806 12.142 15.883 7.335 24.741-4.804 8.857-15.883 12.14-24.741 7.335l-10.802-5.863c-0.35 5.809-3.463 11.352-8.831 14.57-8.643 5.178-19.853 2.37-25.030-6.273l-23.684-39.525-16.36-8.879v18.612l23.444 39.671c5.126 8.677 2.25 19.865-6.425 24.994-5.388 3.186-11.745 3.276-17.019 0.814v12.29c0 10.077-8.17 18.247-18.247 18.247s-18.247-8.17-18.247-18.247v-12.292c-5.272 2.462-11.629 2.37-17.017-0.814-8.677-5.126-11.553-16.317-6.427-24.992l23.442-39.669v-18.614l-16.36 8.877-23.687 39.525c-5.18 8.643-16.384 11.455-25.030 6.273-5.369-3.218-8.482-8.761-8.831-14.57l-10.802 5.863c-8.857 4.806-19.934 1.522-24.741-7.335s-1.522-19.934 7.335-24.741l10.804-5.863c-4.68-3.46-7.629-9.091-7.402-15.345 0.358-9.845 8.454-17.581 18.223-17.579 0.223 0 0.451 0.004 0.678 0.013l46.049 1.685 13.756-7.464-13.756-7.466-46.046 1.685c-10.098 0.356-18.535-7.496-18.902-17.568-0.23-6.255 2.722-11.886 7.402-15.345l-10.804-5.863c-8.857-4.806-12.142-15.883-7.335-24.741 3.306-6.092 9.576-9.546 16.053-9.546 2.941 0 5.923 0.713 8.688 2.213l10.802 5.863c0.35-5.809 3.463-11.352 8.831-14.567 2.937-1.76 6.17-2.597 9.362-2.597 6.202 0 12.249 3.164 15.669 8.87l23.687 39.525 16.36 8.877v-18.614l-23.442-39.669c-5.126-8.677-2.25-19.865 6.427-24.992 5.386-3.184 11.742-3.276 17.017-0.814v-12.292c0-10.077 8.17-18.247 18.247-18.247s18.247 8.17 18.247 18.247v12.326c2.426-1.136 5.066-1.762 7.752-1.762 3.156 0 6.352 0.82 9.267 2.542 8.675 5.128 11.551 16.317 6.425 24.994l-23.444 39.671v18.614l16.36-8.879 23.687-39.525c3.42-5.708 9.467-8.87 15.669-8.87 3.192 0 6.425 0.839 9.362 2.597 5.369 3.218 8.482 8.761 8.831 14.567l10.802-5.863c2.767-1.501 5.747-2.213 8.688-2.213 6.474 0 12.747 3.456 16.053 9.546 4.802 8.857 1.518 19.934-7.34 24.741z" />
<glyph unicode="&#xe920;" glyph-name="thermometer-9" d="M612.953 438.235c-22.033 0-43.396-2.92-63.733-8.366v399.091c-0.002 72.255-58.786 131.040-131.042 131.040h-67.249c-72.255 0-131.040-58.784-131.040-131.040v-526.732c-35.866-40.304-55.46-91.66-55.46-146.103 0-59.379 23.284-115.043 65.567-156.739 41.525-40.95 96.286-63.391 154.524-63.389 1.050 0 2.108 0.007 3.16 0.022 41.437 0.577 81.181 12.718 115.462 34.812 33.089-16.526 70.382-25.845 109.815-25.845 135.989 0 246.623 110.634 246.623 246.623-0.004 135.991-110.64 246.625-246.627 246.625zM612.953 10.864c-99.666 0-180.748 81.083-180.748 180.748s81.083 180.748 180.748 180.748 180.748-81.085 180.748-180.748-81.085-180.748-180.748-180.748zM285.761 828.96c0 35.932 29.233 65.165 65.165 65.165h67.249c35.932 0 65.167-29.233 65.167-65.165v-427.619c-25.375-15.74-47.693-35.95-65.855-59.526v460.956c0 18.19-14.747 32.937-32.937 32.937s-32.937-14.747-32.937-32.937v-590.019c-19.479-11.355-32.579-32.454-32.579-56.628 0-36.185 29.334-65.516 65.516-65.516 1.135 0 2.264 0.029 3.386 0.088 13.144-29.193 31.806-55.387 54.654-77.244-17.332-7.174-36.169-11.289-55.833-11.563-41.578-0.602-80.889 15.188-110.511 44.402-29.63 29.22-45.947 68.226-45.947 109.837 0 41.479 16.231 80.4 45.701 109.593 6.245 6.186 9.758 14.611 9.758 23.401v539.841zM612.953 262.73c10.307 0 18.664 8.357 18.664 18.664v42.377c0 10.307-8.357 18.664-18.664 18.664s-18.664-8.357-18.664-18.664v-42.377c0-10.309 8.355-18.664 18.664-18.664zM676.438 236.433c4.776 0 9.554 1.823 13.197 5.468l29.964 29.964c7.29 7.288 7.29 19.106 0 26.396-7.288 7.288-19.106 7.288-26.396 0l-29.964-29.964c-7.29-7.288-7.29-19.106 0-26.396 3.645-3.645 8.423-5.468 13.199-5.468zM745.11 210.277h-42.375c-10.307 0-18.664-8.357-18.664-18.664s8.357-18.664 18.664-18.664h42.375c10.307 0 18.664 8.357 18.664 18.664s-8.357 18.664-18.664 18.664zM692.45 138.509c-7.288 7.288-19.106 7.288-26.396 0-7.288-7.288-7.288-19.106 0-26.396l29.277-29.277c3.645-3.645 8.421-5.465 13.197-5.465s9.554 1.823 13.199 5.468c7.288 7.288 7.288 19.106 0 26.396l-29.277 29.275zM612.953 120.494c-10.307 0-18.664-8.357-18.664-18.664v-42.375c0-10.307 8.357-18.664 18.664-18.664s18.664 8.357 18.664 18.664v42.375c0 10.309-8.357 18.664-18.664 18.664zM562.664 114.93c7.288 7.288 7.288 19.106 0 26.396-7.288 7.288-19.106 7.288-26.396 0l-29.964-29.964c-7.288-7.288-7.288-19.106 0-26.396 3.645-3.645 8.421-5.465 13.197-5.465s9.554 1.823 13.199 5.468l29.964 29.962zM541.835 191.612c0 10.307-8.357 18.664-18.664 18.664h-42.375c-10.307 0-18.664-8.357-18.664-18.664s8.357-18.664 18.664-18.664h42.375c10.307 0 18.664 8.357 18.664 18.664zM536.268 241.901c3.645-3.645 8.421-5.468 13.197-5.468s9.554 1.823 13.197 5.468c7.29 7.288 7.29 19.106 0 26.396l-29.964 29.964c-7.288 7.288-19.106 7.288-26.396 0s-7.29-19.106 0-26.396l29.966-29.964zM612.953 254.004c-34.402 0-62.392-27.99-62.392-62.392s27.988-62.392 62.392-62.392 62.392 27.988 62.392 62.392-27.99 62.392-62.392 62.392zM612.953 166.549c-13.818 0-25.063 11.243-25.063 25.063s11.243 25.063 25.063 25.063c13.82 0 25.063-11.243 25.063-25.063s-11.243-25.063-25.063-25.063z" />
<glyph unicode="&#xe921;" glyph-name="thermometer-10" d="M384.515-64c1.050 0 2.108 0.007 3.16 0.022 41.437 0.577 81.179 12.718 115.462 34.812 33.091-16.526 70.382-25.845 109.815-25.845 135.989 0 246.623 110.634 246.623 246.623s-110.636 246.623-246.623 246.623c-22.033 0-43.394-2.92-63.733-8.366v399.091c-0.002 72.255-58.786 131.040-131.044 131.040h-67.249c-72.255 0-131.040-58.784-131.040-131.040v-526.732c-35.866-40.304-55.46-91.66-55.46-146.103 0-59.379 23.284-115.043 65.567-156.739 41.523-40.95 96.284-63.389 154.522-63.387zM285.761 828.96c0 35.932 29.233 65.165 65.165 65.165h67.249c35.932 0 65.167-29.233 65.167-65.165v-427.619c-25.375-15.74-47.693-35.95-65.855-59.526v460.956c0 18.19-14.747 32.937-32.937 32.937s-32.937-14.747-32.937-32.937v-590.019c-19.479-11.355-32.579-32.454-32.579-56.628 0-36.185 29.332-65.516 65.516-65.516 1.135 0 2.264 0.029 3.386 0.088 13.144-29.193 31.806-55.387 54.654-77.244-17.332-7.174-36.169-11.289-55.833-11.563-41.611-0.602-80.889 15.188-110.511 44.402-29.63 29.22-45.947 68.226-45.947 109.837 0 41.479 16.231 80.4 45.701 109.593 6.245 6.186 9.758 14.611 9.758 23.401v539.841zM612.953 10.864c-99.666 0-180.748 81.083-180.748 180.748s81.083 180.748 180.748 180.748 180.748-81.085 180.748-180.748-81.085-180.748-180.748-180.748zM526.444 126.875h29.090v61.977h59.445v23.609h-59.445v38.574h71.463v25.509h-100.553zM708.297 226.673c-1.445 3.781-3.505 7.092-6.175 9.929s-5.924 5.090-9.763 6.759c-3.838 1.669-8.151 2.503-12.933 2.503-4.897 0-9.262-0.834-13.1-2.503s-7.092-3.922-9.763-6.759-4.701-6.148-6.091-9.929c-1.392-3.783-2.084-7.789-2.084-12.015 0-4.117 0.692-8.067 2.084-11.849s3.423-7.092 6.091-9.929 5.924-5.118 9.763-6.842c3.838-1.726 8.201-2.587 13.1-2.587 4.894 0 9.262 0.861 13.1 2.587 3.838 1.724 7.092 4.005 9.763 6.842s4.699 6.146 6.089 9.929c1.392 3.781 2.086 7.731 2.086 11.849 0.004 4.225-0.72 8.232-2.167 12.015zM689.692 202.306c-2.727-3.228-6.148-4.84-10.263-4.84-4.117 0-7.567 1.585-10.347 4.756-2.784 3.171-4.172 7.259-4.172 12.266 0 5.116 1.39 9.262 4.172 12.433 2.78 3.171 6.23 4.756 10.347 4.756 4.115 0 7.536-1.585 10.263-4.756 2.725-3.171 4.089-7.259 4.089-12.266s-1.364-9.124-4.089-12.349z" />
<glyph unicode="&#xe922;" glyph-name="thermometer-11" d="M612.953 438.235c-22.033 0-43.394-2.92-63.733-8.366v399.091c-0.002 72.255-58.786 131.040-131.042 131.040h-67.249c-72.255 0-131.042-58.784-131.042-131.040v-526.732c-35.866-40.304-55.462-91.66-55.462-146.103 0-59.377 23.284-115.041 65.565-156.737 41.527-40.952 96.289-63.391 154.526-63.389 1.050 0 2.108 0.007 3.16 0.022 41.437 0.577 81.179 12.718 115.46 34.812 33.089-16.526 70.382-25.845 109.815-25.845 135.989 0 246.623 110.634 246.623 246.623 0.002 135.989-110.634 246.623-246.621 246.623zM612.953 10.864c-99.666 0-180.748 81.083-180.748 180.748s81.085 180.748 180.748 180.748 180.748-81.085 180.748-180.748-81.085-180.748-180.748-180.748zM285.761 828.96c0 35.932 29.233 65.165 65.167 65.165h67.249c35.932 0 65.167-29.233 65.167-65.165v-427.619c-25.375-15.74-47.695-35.95-65.855-59.526v460.956c0 18.19-14.747 32.937-32.937 32.937s-32.937-14.747-32.937-32.937v-590.019c-19.479-11.355-32.579-32.454-32.579-56.628 0-36.185 29.332-65.516 65.516-65.516 1.135 0 2.264 0.029 3.384 0.086 13.144-29.193 31.809-55.387 54.654-77.242-17.332-7.174-36.169-11.289-55.831-11.563-41.703-0.602-80.889 15.188-110.513 44.402-29.628 29.22-45.947 68.226-45.947 109.835 0 41.479 16.231 80.4 45.701 109.593 6.247 6.186 9.758 14.611 9.758 23.401v539.843zM620.884 163.66c-2.813-2.883-5.869-5.237-9.172-7.062-3.303-1.829-6.781-3.162-10.435-4.005-3.656-0.843-7.167-1.265-10.54-1.265-6.464 0-12.402 1.403-17.81 4.216-5.413 2.808-10.050 6.535-13.915 11.172-3.867 4.638-6.849 10.013-8.957 16.126s-3.162 12.47-3.162 19.077c0 5.902 0.911 11.838 2.74 17.812 1.825 5.97 4.53 11.311 8.116 16.021 3.584 4.708 8.078 8.537 13.491 11.488 5.408 2.951 11.767 4.427 19.077 4.427 3.371 0 6.816-0.389 10.329-1.159 3.511-0.775 6.884-2.003 10.116-3.689s6.251-3.972 9.064-6.851c2.808-2.883 5.197-6.429 7.169-10.645l22.345 15.388c-4.921 9.697-12.404 17.567-22.452 23.609s-21.958 9.064-35.728 9.064c-11.666 0-22.066-2.18-31.198-6.535-9.137-4.356-16.864-10.048-23.19-17.075-6.324-7.029-11.137-15.004-14.437-23.926-3.305-8.926-4.956-17.953-4.956-27.088 0-9.558 1.792-18.939 5.375-28.142 3.584-9.207 8.57-17.428 14.967-24.663 6.392-7.24 14.018-13.107 22.872-17.602 8.854-4.499 18.618-6.746 29.301-6.746 6.041 0 12.226 0.775 18.55 2.319s12.259 3.794 17.81 6.746c5.551 2.951 10.542 6.568 14.967 10.856 4.427 4.284 7.832 9.24 10.224 14.861l-23.822 13.702c-1.68-4.078-3.931-7.556-6.739-10.435zM731.909 226.673c-1.445 3.781-3.505 7.092-6.175 9.929s-5.924 5.090-9.763 6.759c-3.838 1.669-8.151 2.503-12.933 2.503-4.897 0-9.262-0.834-13.1-2.503s-7.092-3.922-9.763-6.759-4.701-6.148-6.091-9.929c-1.392-3.783-2.084-7.789-2.084-12.015 0-4.117 0.692-8.067 2.084-11.849s3.423-7.092 6.091-9.929 5.924-5.118 9.763-6.842c3.838-1.726 8.201-2.587 13.1-2.587 4.894 0 9.262 0.861 13.1 2.587 3.838 1.724 7.092 4.005 9.763 6.842s4.699 6.146 6.089 9.929c1.392 3.781 2.086 7.731 2.086 11.849 0.002 4.225-0.722 8.232-2.167 12.015zM713.301 202.306c-2.727-3.228-6.148-4.84-10.263-4.84-4.117 0-7.567 1.585-10.347 4.756-2.784 3.171-4.172 7.259-4.172 12.266 0 5.116 1.39 9.262 4.172 12.433 2.78 3.171 6.23 4.756 10.347 4.756 4.115 0 7.536-1.585 10.263-4.756 2.725-3.171 4.089-7.259 4.089-12.266s-1.364-9.124-4.089-12.349z" />
<glyph unicode="&#xe923;" glyph-name="thermometer-12" d="M827.167 846.995h-159.271c-8.818 63.749-63.635 113.005-129.77 113.005h-67.251c-66.136 0-120.952-49.256-129.77-113.005h-144.272c-78.7 0-142.728-64.028-142.728-142.728v-142.748c0-78.7 64.028-142.728 142.728-142.728h143v-116.565c-35.866-40.304-55.46-91.66-55.46-146.101 0-59.379 23.284-115.043 65.565-156.739 41.525-40.95 96.286-63.391 154.524-63.389 1.050 0 2.108 0.007 3.16 0.022 57.229 0.797 111.238 23.638 152.075 64.32 40.84 40.682 63.885 94.604 64.893 151.832 0.984 55.954-18.605 108.71-55.427 150.060v116.56h158.002c78.7 0 142.728 64.028 142.728 142.728v142.748c0.002 78.7-64.026 142.728-142.726 142.728zM904.021 561.519c0-42.377-34.476-76.853-76.853-76.853h-282.228v296.455h282.228c42.377 0 76.853-34.476 76.853-76.853v-142.748zM613.049 265.719c30.206-29.92 46.428-69.833 45.677-112.388-1.447-82.358-69.645-150.295-152.018-151.441-41.674-0.602-80.889 15.188-110.511 44.402-29.628 29.22-45.947 68.226-45.947 109.837 0 41.479 16.231 80.4 45.701 109.593 6.245 6.186 9.756 14.611 9.756 23.401v129.672h65.855v-206.040c-19.479-11.355-32.579-32.454-32.579-56.628 0-36.185 29.334-65.516 65.516-65.516s65.516 29.334 65.516 65.516c0 24.174-13.1 45.273-32.579 56.628v206.040h65.852v-129.672c0.002-8.792 3.513-17.217 9.76-23.403zM119.979 561.519v142.748c0 42.377 34.476 76.853 76.853 76.853h282.23v-296.455h-282.23c-42.375 0-76.853 34.476-76.853 76.853zM470.875 894.126h67.251c29.676 0 54.764-19.947 62.609-47.131h-192.467c7.843 27.184 32.931 47.131 62.607 47.131zM229.098 568.157h29.090v61.975h59.445v23.609h-59.445v38.576h71.463v25.507h-100.553zM359.22 634.159c2.67-2.837 5.924-5.118 9.763-6.842 3.838-1.726 8.201-2.587 13.1-2.587 4.894 0 9.262 0.861 13.1 2.587 3.838 1.724 7.092 4.005 9.763 6.842s4.699 6.146 6.089 9.929c1.392 3.781 2.086 7.731 2.086 11.849 0 4.227-0.725 8.232-2.169 12.015-1.445 3.781-3.505 7.092-6.175 9.929s-5.924 5.090-9.763 6.759c-3.838 1.669-8.151 2.503-12.933 2.503-4.897 0-9.262-0.834-13.1-2.503s-7.092-3.922-9.763-6.759-4.701-6.148-6.091-9.929c-1.392-3.783-2.084-7.789-2.084-12.015 0-4.117 0.692-8.067 2.084-11.849s3.423-7.092 6.093-9.929zM371.736 668.203c2.78 3.171 6.23 4.756 10.347 4.756 4.115 0 7.536-1.585 10.263-4.756 2.725-3.171 4.089-7.259 4.089-12.266s-1.364-9.124-4.089-12.349c-2.727-3.228-6.148-4.84-10.263-4.84-4.117 0-7.567 1.585-10.347 4.756-2.784 3.171-4.172 7.259-4.172 12.266-0.002 5.116 1.388 9.262 4.172 12.433zM732.853 604.941c-2.813-2.883-5.869-5.237-9.172-7.062-3.303-1.829-6.781-3.162-10.435-4.005-3.656-0.843-7.167-1.265-10.54-1.265-6.464 0-12.402 1.403-17.81 4.216-5.413 2.808-10.050 6.535-13.915 11.172-3.867 4.638-6.849 10.013-8.957 16.126s-3.162 12.47-3.162 19.077c0 5.902 0.911 11.838 2.74 17.812 1.825 5.97 4.53 11.311 8.116 16.021 3.584 4.708 8.078 8.537 13.491 11.488 5.408 2.951 11.767 4.427 19.077 4.427 3.371 0 6.816-0.389 10.329-1.159 3.511-0.775 6.884-2.003 10.116-3.689s6.251-3.972 9.064-6.851c2.808-2.883 5.197-6.429 7.169-10.645l22.345 15.388c-4.921 9.697-12.404 17.567-22.452 23.609s-21.958 9.064-35.728 9.064c-11.666 0-22.066-2.18-31.198-6.535-9.137-4.356-16.864-10.048-23.19-17.075-6.324-7.029-11.137-15.004-14.437-23.926-3.305-8.926-4.956-17.953-4.956-27.088 0-9.558 1.792-18.939 5.375-28.142 3.584-9.207 8.57-17.428 14.967-24.663 6.392-7.24 14.018-13.107 22.872-17.602 8.854-4.499 18.618-6.746 29.301-6.746 6.041 0 12.226 0.775 18.55 2.319s12.259 3.794 17.81 6.746c5.551 2.951 10.542 6.568 14.967 10.856 4.427 4.284 7.832 9.24 10.224 14.861l-23.822 13.702c-1.682-4.078-3.931-7.556-6.739-10.435zM837.703 677.884c-2.67 2.837-5.924 5.090-9.763 6.759s-8.151 2.503-12.933 2.503c-4.897 0-9.262-0.834-13.1-2.503s-7.092-3.922-9.763-6.759-4.701-6.148-6.091-9.929c-1.392-3.783-2.084-7.789-2.084-12.015 0-4.117 0.692-8.067 2.084-11.849s3.423-7.092 6.091-9.929 5.924-5.118 9.763-6.842c3.838-1.726 8.201-2.587 13.1-2.587 4.894 0 9.262 0.861 13.1 2.587 3.838 1.724 7.092 4.005 9.763 6.842s4.699 6.146 6.089 9.929c1.392 3.781 2.086 7.731 2.086 11.849 0 4.227-0.725 8.232-2.169 12.015-1.445 3.779-3.502 7.092-6.172 9.929zM825.27 643.588c-2.727-3.228-6.148-4.84-10.263-4.84-4.117 0-7.567 1.585-10.347 4.756-2.784 3.171-4.172 7.259-4.172 12.266 0 5.116 1.39 9.262 4.172 12.433 2.78 3.171 6.23 4.756 10.347 4.756 4.115 0 7.536-1.585 10.263-4.756 2.725-3.171 4.089-7.259 4.089-12.266s-1.364-9.124-4.089-12.349z" />
<glyph unicode="&#xe924;" glyph-name="timer" d="M409.334 767.97h195.562c20.25 0 36.668 16.417 36.668 36.668v118.694c0 20.25-16.417 36.668-36.668 36.668h-195.562c-20.25 0-36.668-16.417-36.668-36.668v-118.694c0-20.25 16.417-36.668 36.668-36.668zM446.001 886.664h122.226v-45.358h-122.226v45.358zM958.763 715.552l-62.617 62.617c-17.395 17.395-45.6 17.395-62.995 0l-13.242-13.242c-17.395-17.395-17.395-45.6 0-62.995l5.38-5.38-63.037-63.039c-68.080 56.185-155.293 89.976-250.251 89.976s-182.171-33.788-250.251-89.976l-63.037 63.039 5.38 5.38c17.395 17.395 17.395 45.6 0 62.995l-13.242 13.242c-17.395 17.395-45.6 17.395-62.995 0l-62.619-62.617c-17.395-17.395-17.395-45.6 0-62.995l13.242-13.242c17.395-17.395 45.6-17.395 62.995 0l5.38 5.38 62.898-62.898c-57.087-68.342-91.496-156.249-91.496-252.053 0-0.394 0.046-0.775 0.059-1.166h-45.104c-16.914 0-25.384-20.448-13.423-32.407l81.713-81.713c7.414-7.414 19.434-7.414 26.848 0l81.713 81.716c11.959 11.959 3.488 32.407-13.423 32.407h-45.106c0.012 0.391 0.059 0.772 0.059 1.166 0 176.671 143.733 320.407 320.407 320.407s320.407-143.736 320.407-320.407-143.733-320.411-320.407-320.411c-91.538 0-178.915 39.298-239.73 107.821-10.394 11.714-26.601 15.156-40.425 9.913-4.051-1.535-7.908-3.782-11.34-6.828-15.146-13.442-16.527-36.617-3.085-51.765 74.719-84.189 182.090-132.476 294.578-132.476 217.111 0 393.742 176.632 393.742 393.742 0 95.803-34.409 183.711-91.496 252.053l62.898 62.898 5.38-5.38c17.395-17.395 45.6-17.395 62.995 0l13.242 13.242c17.4 17.398 17.4 45.603 0.005 62.998zM547.080 242.808c7.16-7.16 16.545-10.741 25.927-10.741s18.769 3.581 25.927 10.741c14.32 14.318 14.32 37.536 0 51.856l-50.267 50.267v215.993c0 20.25-16.417 36.668-36.668 36.668s-36.668-16.417-36.668-36.668v-231.181c0-9.727 3.865-19.053 10.741-25.927l61.008-61.008z" />
<glyph unicode="&#xe925;" glyph-name="back" d="M716.021-64c-27.771 0-53.878 10.814-73.517 30.453l-407.998 407.994c-19.686 19.686-30.496 45.792-30.496 73.563s10.814 53.878 30.453 73.517l408.041 408.020c19.639 19.639 45.724 30.453 73.517 30.453s53.878-10.814 73.517-30.453c19.661-19.639 30.453-45.746 30.453-73.542s-10.835-53.903-30.453-73.517l-334.524-334.503 334.524-334.503c19.639-19.639 30.453-45.724 30.453-73.517s-10.835-53.878-30.453-73.517c-19.639-19.636-45.767-30.449-73.517-30.449zM266.461 407.859l0.715-0.694 408.020-408.020c21.832-21.832 59.842-21.832 81.674 0 10.929 10.929 16.911 25.416 16.911 40.849s-6.007 29.921-16.911 40.849l-367.195 367.145 367.195 367.17c10.929 10.903 16.911 25.416 16.911 40.849s-6.007 29.942-16.911 40.871c-21.832 21.811-59.838 21.811-81.674 0l-408.045-408.020c-10.903-10.903-16.911-25.416-16.911-40.824-0.022-15.135 5.73-29.342 16.22-40.177z" />
<glyph unicode="&#xe926;" glyph-name="next-4" d="M307.973-64c-27.772 0-53.879 10.814-73.519 30.454s-30.454 45.725-30.454 73.519c0 27.793 10.835 53.879 30.454 73.519l334.533 334.533-334.533 334.486c-19.64 19.615-30.454 45.725-30.454 73.519s10.814 53.879 30.454 73.544c19.64 19.64 45.725 30.428 73.519 30.428s53.879-10.814 73.519-30.428l408.051-408.030c19.661-19.64 30.454-45.725 30.454-73.519s-10.814-53.879-30.454-73.519l-408.048-408.030c-19.64-19.665-45.747-30.475-73.522-30.475zM307.973 913.768c-15.434 0-29.922-6.007-40.85-16.889-10.929-10.929-16.911-25.438-16.911-40.872s6.007-29.943 16.911-40.85l367.204-367.158-367.201-367.179c-10.929-10.929-16.911-25.417-16.911-40.85s6.007-29.922 16.911-40.85c21.833-21.833 59.843-21.833 81.676 0l409.069 409.047c10.235 10.767 15.897 24.86 15.897 39.833 0 15.434-6.007 29.922-16.911 40.825l-408.055 408.055c-10.907 10.904-25.392 16.889-40.829 16.889z" />
<glyph unicode="&#xe927;" glyph-name="up-arrow" d="M920.041 139.98c-27.774 0-53.883 10.836-73.524 30.456l-334.537 334.559-334.512-334.537c-19.616-19.641-45.729-30.456-73.524-30.456s-53.908 10.815-73.549 30.456c-40.53 40.53-40.53 106.497 0 147.027l408.061 408.083c19.616 19.641 45.729 30.456 73.503 30.456 27.752 0 53.883-10.815 73.524-30.456l408.061-408.083c19.663-19.641 30.456-45.729 30.456-73.524 0-27.752-10.815-53.883-30.456-73.524-19.616-19.62-45.725-30.456-73.503-30.456zM511.984 570.336l367.208-367.233c21.834-21.834 59.844-21.834 81.682 0 10.93 10.93 16.912 25.44 16.912 40.854s-6.008 29.924-16.912 40.854l-409.1 409.079c-21.834 20.842-59.154 20.497-80.618-0.992l-408.086-408.086c-22.528-22.528-22.528-59.175 0-81.682 21.834-21.834 59.891-21.834 81.704 0l367.211 367.208z" />
<glyph unicode="&#xe928;" glyph-name="down-arrow" d="M511.973 139.983c-27.773 0-53.882 10.836-73.523 30.455l-408.053 408.099c-40.529 40.529-40.529 106.495 0 147.024 19.641 19.641 45.749 30.455 73.548 30.455s53.907-10.814 73.523-30.455l334.505-334.552 334.53 334.552c19.641 19.641 45.728 30.455 73.523 30.455s53.882-10.814 73.523-30.455c19.662-19.641 30.455-45.749 30.455-73.523s-10.814-53.882-30.455-73.523l-408.031-408.009c-19.662-19.709-45.796-30.524-73.544-30.524zM103.942 709.804c-15.434 0-29.945-6.008-40.874-16.912-22.528-22.528-22.528-59.174 0-81.68l408.053-408.078c21.629-21.629 59.081-21.906 80.965-0.669l408.743 408.743c10.93 10.93 16.912 25.418 16.912 40.853s-6.008 29.923-16.912 40.853c-21.834 21.812-59.846 21.812-81.68 0l-367.175-367.247-367.178 367.221c-10.93 10.908-25.418 16.916-40.853 16.916z" />
<glyph unicode="&#xe929;" glyph-name="back-1" d="M367.859 80.13c-29.097 0-56.433 11.344-76.967 31.882l-261.888 262.129c-4.065 4.404-7.618 8.901-10.715 13.568-1.404 2.081-2.638 4.426-3.846 6.775l-1.837 3.387c-1.573 2.759-3.098 5.563-4.328 8.562s-2.153 6.12-3.022 9.289l-0.918 3.071c-0.869 2.589-1.667 5.224-2.202 7.934-1.378 6.94-2.104 14.054-2.13 21.092 0 7.159 0.726 14.343 2.13 21.479 0.486 2.492 1.234 5.006 2.081 7.497l1.065 3.579c0.869 3.098 1.765 6.142 3 9.142 1.283 3.071 2.759 5.781 4.283 8.491l1.765 3.312c1.234 2.42 2.492 4.814 4.038 7.11 3.677 5.54 7.885 10.715 12.458 15.457l1.065 1.088 259.035 259.013c20.561 20.561 47.893 31.882 76.967 31.882 29.097 0 56.433-11.321 76.967-31.905 20.561-20.535 31.882-47.87 31.882-76.967 0-29.074-11.321-56.406-31.882-76.967l-73.196-73.196h543.494c60.012 0 108.849-48.838 108.849-108.849s-48.838-108.849-108.849-108.849h-543.525l73.219-73.219c20.561-20.561 31.882-47.87 31.882-76.967s-11.321-56.406-31.882-76.967c-20.584-20.535-47.919-31.852-76.994-31.852zM67.487 403.822l257.632-257.583c22.834-22.834 62.65-22.883 85.507 0 11.415 11.442 17.704 26.609 17.704 42.767s-6.289 31.325-17.704 42.767l-155.798 155.798h660.3c33.358 0 60.471 27.114 60.471 60.471 0 33.331-27.114 60.471-60.471 60.471h-660.3l155.798 155.775c11.415 11.415 17.704 26.609 17.704 42.767s-6.289 31.348-17.704 42.767c-22.812 22.834-62.673 22.857-85.507 0l-259.013-259.035c-2.853-2.853-5.344-5.928-7.546-9.217l-3.967-7.426c-0.58-1.016-1.186-2.006-1.645-3.071-0.41-1.016-0.7-2.3-1.065-3.557l-1.792-5.928c-1.329-5.732-1.743-9.725-1.743-13.568 0-3.967 0.437-7.934 1.208-11.852l2.345-7.693c0.316-1.208 0.58-2.42 1.065-3.557s1.114-2.13 1.667-3.143l2.977-5.54c3.049-4.957 5.465-7.836 8.054-10.523l1.822-1.889z" />
<glyph unicode="&#xe92a;" glyph-name="next-1" d="M656.101 80.135c-29.074 0-56.405 11.321-76.966 31.881s-31.881 47.869-31.881 76.966 11.343 56.405 31.881 76.966l73.217 73.217h-543.505c-60.011 0-108.847 48.836-108.847 108.847s48.836 108.847 108.847 108.847h543.483l-73.194 73.194c-20.583 20.561-31.881 47.892-31.881 76.966s11.321 56.431 31.881 76.966c20.534 20.561 47.869 31.881 76.943 31.881s56.405-11.321 76.992-31.855l260.046-260.046c4.595-4.742 8.829-9.989 12.555-15.551 1.524-2.224 2.879-4.765 4.159-7.328l1.596-3.022c1.573-2.732 3.071-5.514 4.283-8.464 1.234-2.928 2.153-6.048 3-9.168l1.016-3.387c0.869-2.563 1.667-5.175 2.202-7.885 1.377-6.917 2.081-14.076 2.081-21.14 0-7.109-0.7-14.272-2.13-21.309-0.58-2.928-1.426-5.54-2.3-8.175l-0.726-2.42c-0.896-3.361-1.863-6.677-3.24-9.94-1.114-2.732-2.71-5.683-4.403-8.589l-1.547-2.902c-1.234-2.443-2.514-4.836-4.065-7.136-1.961-2.973-4.136-5.901-6.507-8.732v-0.798l-266.045-265.97c-20.489-20.568-47.82-31.915-76.943-31.915zM108.847 508.481c-33.33 0-60.47-27.139-60.47-60.47 0-33.357 27.139-60.47 60.47-60.47h660.286l-155.794-155.794c-11.441-11.441-17.704-26.609-17.704-42.766s6.289-31.324 17.704-42.766c22.905-22.883 62.769-22.811 85.479-0.023l260.554 260.577c1.524 1.622 3.918 4.524 5.999 7.644l3.846 7.207c0.58 0.99 1.234 1.961 1.645 3.049 0.655 1.547 0.918 2.781 1.257 3.989l1.524 5.126c0.29 0.847 0.606 1.667 0.775 2.54 0.749 3.775 1.163 7.715 1.163 11.584 0 3.989-0.41 7.983-1.186 11.949l-2.394 7.742c-0.316 1.163-0.557 2.345-1.039 3.481-0.486 1.137-1.065 2.032-1.596 2.973l-2.879 5.393c-2.322 3.797-4.257 6.436-6.142 8.66l-0.847 0.41-2.492 3.097-258.16 258.16c-22.856 22.811-62.72 22.834-85.479 0-11.464-11.441-17.73-26.631-17.73-42.788 0-16.135 6.289-31.324 17.704-42.766l155.821-155.772-660.316 0.030z" />
<glyph unicode="&#xe92b;" glyph-name="up-arrow-4" d="M847.987 669.101l-260.081 260.081c-4.716 4.573-9.918 8.781-15.458 12.458-2.322 1.547-4.716 2.808-7.136 4.039l-3.312 1.765c-2.684 1.524-5.393 3-8.465 4.283-3.022 1.235-6.097 2.13-9.169 3l-3.579 1.065c-2.514 0.847-5.006 1.596-7.524 2.081-7.136 1.426-14.321 2.127-21.48 2.127-7.038-0.023-14.152-0.749-21.092-2.13-2.71-0.531-5.345-1.355-7.934-2.202l-3.071-0.918c-3.143-0.869-6.289-1.792-9.289-3.022-2.973-1.235-5.781-2.759-8.563-4.328l-3.41-1.814c-2.371-1.208-4.693-2.443-6.775-3.847-4.645-3.098-9.169-6.651-13.568-10.715l-262.091-261.921c-20.562-20.562-31.883-47.872-31.883-76.969s11.321-56.408 31.883-76.969c20.562-20.584 47.872-31.883 76.969-31.883s56.408 11.321 76.969 31.883l73.221 73.221v-543.531c0-60.036 48.839-108.852 108.852-108.852 60.036 0 108.852 48.812 108.852 108.852v543.505l73.221-73.172c20.562-20.584 47.872-31.883 76.969-31.883 29.053 0 56.408 11.321 76.969 31.857s31.883 47.872 31.883 76.969-11.37 56.389-31.909 76.973zM813.785 549.364c-11.442-11.442-26.61-17.705-42.768-17.705s-31.375 6.289-42.768 17.705l-155.802 155.779v-660.291c0-33.358-27.114-60.473-60.473-60.473s-60.473 27.114-60.473 60.473v660.34l-155.802-155.802c-11.442-11.442-26.61-17.705-42.768-17.705s-31.326 6.289-42.768 17.705c-22.884 22.857-22.835 62.652 0 85.509l259.501 259.407c2.661 2.612 5.54 5.032 10.524 8.054l5.54 2.977c1.016 0.557 1.984 1.208 3.143 1.667s2.371 0.749 3.557 1.065l7.693 2.345c3.896 0.775 7.885 1.186 11.83 1.208 3.82 0 7.814-0.41 13.546-1.743l5.951-1.792c1.283-0.361 2.541-0.655 3.53-1.065 1.088-0.459 2.081-1.065 3.12-1.645l7.475-3.944c3.267-2.202 6.338-4.693 9.217-7.546l258.993-259.019c22.857-22.854 22.808-62.671 0-85.506z" />
<glyph unicode="&#xe92c;" glyph-name="downloading" d="M175.964 226.948l260.081-260.107c4.716-4.573 9.918-8.781 15.458-12.458 2.322-1.547 4.716-2.83 7.136-4.065l3.312-1.743c2.684-1.524 5.393-3.022 8.465-4.306 3.022-1.235 6.097-2.13 9.169-2.977l3.579-1.088c2.514-0.824 5.006-1.596 7.524-2.081 7.136-1.426 14.321-2.13 21.48-2.13 7.038 0.049 14.152 0.749 21.092 2.13 2.71 0.557 5.345 1.378 7.934 2.224l3.071 0.896c3.169 0.896 6.312 1.792 9.312 3.049 2.973 1.235 5.781 2.759 8.563 4.328l3.41 1.837c2.371 1.186 4.693 2.443 6.775 3.82 4.645 3.12 9.169 6.651 13.568 10.715l262.113 261.921c20.562 20.562 31.883 47.872 31.883 76.969 0 29.053-11.321 56.408-31.883 76.969s-47.872 31.883-76.969 31.883-56.408-11.344-76.969-31.883l-73.221-73.221v543.516c0.004 60.040-48.831 108.852-108.845 108.852-60.036 0-108.852-48.812-108.852-108.852v-543.46l-73.221 73.172c-20.562 20.562-47.872 31.883-76.969 31.883-29.053 0-56.408-11.344-76.969-31.883-20.562-20.513-31.883-47.872-31.883-76.969-0.049-29.026 11.295-56.381 31.857-76.943zM210.169 346.685c11.442 11.442 26.61 17.705 42.768 17.705s31.375-6.289 42.768-17.705l155.802-155.802v660.265c0 33.358 27.114 60.473 60.473 60.473s60.473-27.114 60.473-60.473v-660.291l155.802 155.802c11.442 11.442 26.61 17.705 42.768 17.705s31.326-6.289 42.768-17.705c22.884-22.857 22.835-62.652 0-85.509l-259.55-259.407c-2.661-2.589-5.54-5.006-10.524-8.081l-5.54-2.977c-1.016-0.557-1.984-1.186-3.143-1.645s-2.371-0.749-3.557-1.088l-7.693-2.345c-3.896-0.775-7.885-1.208-11.83-1.208-3.82 0-7.814 0.437-13.546 1.743l-5.951 1.792c-1.283 0.339-2.541 0.629-3.53 1.039-1.088 0.486-2.081 1.088-3.12 1.645l-7.426 3.967c-3.267 2.202-6.338 4.667-9.217 7.546l-258.993 259.019c-22.861 22.884-22.812 62.701 0 85.536z" />
<glyph unicode="&#xe92d;" glyph-name="back-7" d="M755.504-64c-17.284 0-43.916 5.004-72.449 28.951l-461.752 386.39c-29.43 24.603-46.296 59.843-46.296 96.725s16.869 72.122 46.296 96.725l461.749 386.326c28.557 23.879 55.169 28.883 72.449 28.883 46.472 0 93.489-36.576 93.489-106.448v-811.128c0.024-69.872-47.016-106.424-93.485-106.424zM755.504 916.302c-10.073 0-25.956-3.233-44.419-18.701l-461.749-386.326c-19.49-16.277-30.63-39.326-30.63-63.209 0-23.903 11.164-46.908 30.63-63.209l461.749-386.435c18.528-15.492 34.39-18.745 44.419-18.745 24.797 0 49.794 19.401 49.794 62.726v811.148c0.020 43.348-24.997 62.75-49.794 62.75z" />
<glyph unicode="&#xe92e;" glyph-name="right-arrow-2" d="M268.496-64c-46.472 0-93.489 36.552-93.489 106.424v811.128c0 69.872 47.016 106.448 93.489 106.448 17.304 0 43.936-5.004 72.472-28.883l461.725-386.326c29.451-24.603 46.296-59.843 46.296-96.725s-16.845-72.122-46.296-96.745l-461.725-386.37c-28.577-23.947-55.169-28.951-72.472-28.951zM268.496 916.302c-24.797 0-49.794-19.401-49.794-62.75v-811.128c0-43.324 25.018-62.726 49.794-62.726 10.049 0 25.935 3.257 44.439 18.745l461.729 386.414c19.51 16.298 30.63 39.326 30.63 63.229 0 23.882-11.144 46.908-30.63 63.209l-461.725 386.285c-18.507 15.468-34.37 18.722-44.443 18.722z" />
<glyph unicode="&#xe92f;" glyph-name="battery" d="M849.957 733.093c11.563 0 20.987-9.401 20.987-20.987v-128.545h90.097c11.563 0 20.987-9.401 20.987-20.987v-229.131c0-11.563-9.424-20.987-20.987-20.987h-90.097v-128.545c0-11.563-9.424-20.987-20.987-20.987h-786.996c-11.605 0-20.987 9.424-20.987 20.987v528.195c0 11.586 9.382 20.987 20.987 20.987h786.996zM849.957 775.067h-786.996c-34.777 0-62.961-28.207-62.961-62.961v-528.211c0-34.731 28.184-62.961 62.961-62.961h786.996c34.731 0 62.961 28.227 62.961 62.961v86.571h48.123c34.731 0 62.958 28.227 62.958 62.961v229.154c0 34.754-28.227 62.961-62.958 62.961h-48.123v86.564c-0.003 34.754-28.207 62.961-62.961 62.961v0zM145.163 635.168h111.796v-374.274h-111.796c0 0 0 374.274 0 374.274z" />
<glyph unicode="&#xe930;" glyph-name="battery-1" d="M849.957 733.093c11.563 0 20.987-9.401 20.987-20.987v-128.545h90.097c11.563 0 20.987-9.401 20.987-20.987v-229.131c0-11.563-9.424-20.987-20.987-20.987h-90.097v-128.545c0-11.563-9.424-20.987-20.987-20.987h-786.996c-11.605 0-20.987 9.424-20.987 20.987v528.195c0 11.586 9.382 20.987 20.987 20.987h786.996zM849.957 775.067h-786.996c-34.777 0-62.961-28.207-62.961-62.961v-528.211c0-34.731 28.184-62.961 62.961-62.961h786.996c34.731 0 62.961 28.227 62.961 62.961v86.571h48.123c34.731 0 62.958 28.227 62.958 62.961v229.154c0 34.754-28.227 62.961-62.958 62.961h-48.123v86.564c-0.003 34.754-28.207 62.961-62.961 62.961v0zM145.163 635.168h111.796v-374.274h-111.796c0 0 0 374.274 0 374.274zM314.862 635.168h111.796v-374.274h-111.796v374.274z" />
<glyph unicode="&#xe931;" glyph-name="battery-2" d="M849.957 733.093c11.563 0 20.987-9.401 20.987-20.987v-128.545h90.097c11.563 0 20.987-9.401 20.987-20.987v-229.131c0-11.563-9.424-20.987-20.987-20.987h-90.097v-128.545c0-11.563-9.424-20.987-20.987-20.987h-786.996c-11.605 0-20.987 9.424-20.987 20.987v528.195c0 11.586 9.382 20.987 20.987 20.987h786.996zM849.957 775.067h-786.996c-34.777 0-62.961-28.207-62.961-62.961v-528.211c0-34.731 28.184-62.961 62.961-62.961h786.996c34.731 0 62.961 28.227 62.961 62.961v86.571h48.123c34.731 0 62.958 28.227 62.958 62.961v229.154c0 34.754-28.227 62.961-62.958 62.961h-48.123v86.564c-0.003 34.754-28.207 62.961-62.961 62.961v0zM145.163 635.168h111.796v-374.274h-111.796c0 0 0 374.274 0 374.274zM314.862 635.168h111.796v-374.274h-111.796v374.274zM484.516 635.168h111.796v-374.317h-111.796v374.317z" />
<glyph unicode="&#xe932;" glyph-name="battery-3" d="M849.957 733.073c11.563 0 20.987-9.401 20.987-20.987v-128.545h90.097c11.563 0 20.987-9.401 20.987-20.987v-229.111c0-11.586-9.424-20.987-20.987-20.987h-90.097v-128.545c0-11.586-9.424-20.987-20.987-20.987h-786.996c-11.605 0-20.987 9.401-20.987 20.987v528.175c0 11.586 9.382 20.987 20.987 20.987h786.996zM849.957 775.044h-786.996c-34.777 0-62.961-28.184-62.961-62.958v-528.169c0-34.731 28.184-62.961 62.961-62.961h786.996c34.731 0 62.961 28.227 62.961 62.961v86.571h48.123c34.731 0 62.958 28.207 62.958 62.961v229.111c0 34.754-28.227 62.961-62.958 62.961h-48.123v86.564c-0.003 34.797-28.207 62.958-62.961 62.958v0zM145.163 635.149h111.796v-374.274h-111.796c0 0 0 374.274 0 374.274zM314.862 635.149h111.796v-374.274h-111.796v374.274zM484.516 635.149h111.796v-374.297h-111.796v374.297zM654.193 635.149h111.816v-374.274h-111.816v374.274z" />
</font>
</defs>
</svg>
